<?xml version="1.0" standalone="no"?>
<!DOCTYPE svg PUBLIC "-//W3C//DTD SVG 20010904//EN"
 "http://www.w3.org/TR/2001/REC-SVG-20010904/DTD/svg10.dtd">
<svg version="1.0" xmlns="http://www.w3.org/2000/svg"
 width="1536.000000pt" height="1536.000000pt" viewBox="0 0 1536.000000 1536.000000"
 preserveAspectRatio="xMidYMid meet">
<metadata>
Created by potrace 1.10, written by Peter Selinger 2001-2011
</metadata>
<g transform="translate(0.000000,1536.000000) scale(0.100000,-0.100000)"
fill="#ffffff" stroke="none">
<path d="M8555 14110 c-148 -16 -227 -29 -355 -60 -25 -7 -63 -15 -85 -19 -22
-4 -56 -13 -75 -19 -19 -6 -102 -32 -185 -58 -372 -114 -442 -136 -468 -150
-16 -8 -35 -14 -42 -14 -8 0 -29 -7 -47 -14 -18 -8 -87 -36 -153 -62 -295
-116 -567 -292 -810 -524 -232 -221 -531 -570 -672 -781 -70 -106 -213 -398
-213 -435 0 -26 -33 -14 -84 30 -63 53 -200 143 -281 184 -187 93 -349 146
-635 208 -91 20 -181 40 -200 44 -196 46 -211 47 -234 24 -28 -27 -18 -60 34
-121 56 -65 140 -226 140 -268 0 -31 8 -31 -175 0 -55 9 -116 19 -135 21 -19
3 -73 11 -120 19 -47 8 -143 24 -215 36 -71 11 -161 26 -200 34 -189 38 -236
48 -310 67 -44 11 -100 24 -125 29 -25 6 -53 14 -62 19 -10 6 -25 10 -33 10
-53 0 -337 114 -445 179 -143 86 -204 138 -253 217 -30 48 -75 84 -107 84 -29
0 -79 -24 -110 -53 -14 -12 -52 -43 -86 -69 -107 -82 -154 -165 -154 -272 0
-111 33 -170 100 -179 21 -3 76 -27 122 -54 112 -66 190 -106 338 -170 69 -30
139 -61 155 -68 17 -8 55 -23 85 -35 30 -11 64 -24 75 -29 62 -26 237 -83 395
-128 30 -9 73 -22 95 -29 22 -7 67 -19 100 -28 33 -9 74 -21 90 -25 17 -5 66
-16 110 -26 44 -9 98 -21 119 -27 22 -5 51 -11 65 -13 40 -5 207 -34 296 -50
44 -9 115 -20 158 -25 43 -5 81 -11 86 -14 4 -3 54 -10 111 -15 61 -6 108 -15
115 -23 14 -15 35 -95 35 -133 0 -15 7 -59 15 -99 52 -238 50 -231 125 -451
74 -216 183 -426 318 -613 94 -131 132 -225 97 -238 -13 -5 -38 14 -99 77 -73
76 -107 123 -231 312 -58 89 -218 246 -318 311 -321 209 -653 284 -1137 256
-107 -7 -220 -13 -250 -15 -30 -2 -93 -8 -140 -13 -47 -6 -134 -16 -195 -22
-230 -23 -362 -44 -465 -75 -30 -9 -68 -20 -85 -24 -75 -22 -230 -83 -330
-131 -252 -120 -909 -520 -1280 -778 -307 -213 -319 -225 -296 -287 7 -20 22
-51 33 -68 11 -18 81 -136 157 -263 124 -208 373 -594 404 -626 7 -7 30 -38
52 -68 57 -80 262 -323 347 -411 417 -433 916 -711 1443 -803 161 -29 479 -16
791 32 38 6 99 13 137 17 l67 6 0 -243 c0 -134 5 -283 10 -333 6 -49 15 -135
20 -189 11 -112 14 -131 71 -421 37 -190 74 -361 98 -455 5 -19 12 -64 16
-100 9 -93 55 -289 96 -410 4 -14 26 -95 49 -180 62 -239 103 -371 137 -450
83 -187 128 -263 251 -429 100 -135 295 -334 367 -375 28 -16 65 -42 83 -58
24 -20 43 -28 71 -28 21 0 52 -7 67 -15 16 -8 36 -15 45 -15 23 0 93 -36 162
-83 60 -41 215 -142 249 -162 119 -71 310 -164 448 -220 25 -10 59 -24 75 -31
175 -75 649 -183 875 -198 41 -3 107 -10 145 -16 91 -12 424 -12 545 1 52 5
138 14 190 18 52 5 124 14 160 20 36 6 106 18 155 27 168 30 483 99 555 123
14 4 52 16 85 26 506 149 779 279 1107 525 412 310 790 735 1075 1210 57 94
190 354 242 470 45 102 151 394 171 475 5 17 22 84 40 150 87 335 129 720 130
1186 0 225 3 299 13 306 6 5 32 17 57 27 25 10 59 24 75 31 17 7 86 36 155 65
177 74 262 113 665 310 301 147 415 221 561 365 147 145 254 318 359 580 31
77 60 149 64 160 238 560 285 1153 141 1763 -23 95 -64 237 -85 292 -88 230
-173 414 -251 547 -295 501 -641 892 -1169 1323 -214 175 -348 265 -617 416
-105 58 -380 190 -488 234 -30 12 -68 28 -85 35 -58 25 -81 34 -195 73 -63 22
-142 50 -175 62 -33 12 -73 25 -90 30 -16 4 -41 12 -55 18 -14 5 -52 18 -85
27 -33 10 -71 21 -85 26 -32 9 -102 29 -260 74 -69 19 -150 42 -180 51 -122
35 -256 70 -310 79 -19 4 -82 15 -140 26 -120 22 -398 32 -525 19z m-1796
-4040 c25 -52 79 -97 105 -87 8 3 20 18 28 33 16 35 69 71 116 80 42 8 95 -4
207 -48 119 -47 183 -44 350 16 148 53 231 60 319 29 56 -20 123 -80 128 -115
2 -17 8 -22 23 -20 11 2 22 8 25 12 9 14 80 39 129 46 66 9 113 -9 154 -57
l34 -39 52 16 c72 21 139 5 311 -74 159 -73 201 -86 435 -137 223 -49 319
-105 379 -222 19 -38 13 -37 81 -18 49 15 58 15 112 -1 64 -18 129 -60 161
-103 22 -31 52 -111 52 -142 0 -11 6 -21 13 -23 6 -2 32 -9 56 -16 32 -8 61
-28 102 -69 61 -61 101 -131 154 -272 62 -161 90 -208 185 -304 106 -108 124
-140 117 -208 -4 -47 -2 -51 38 -91 54 -55 68 -108 60 -230 -7 -98 4 -146 47
-190 42 -44 58 -80 58 -134 0 -61 -18 -101 -84 -186 -25 -33 -46 -63 -46 -68
0 -4 23 -19 50 -33 62 -32 74 -58 66 -144 -8 -79 -38 -167 -84 -243 -38 -65
-143 -167 -197 -192 -36 -18 -60 -49 -50 -66 11 -18 -14 -146 -43 -216 -15
-38 -77 -143 -137 -234 -476 -721 -471 -716 -578 -765 l-54 -24 -7 -56 c-10
-86 -100 -216 -213 -309 -29 -24 -88 -75 -130 -113 -227 -203 -273 -242 -323
-280 -67 -49 -119 -75 -184 -94 -47 -13 -50 -17 -84 -88 -26 -53 -53 -88 -98
-130 -106 -97 -222 -142 -435 -171 l-87 -12 -6 -41 c-11 -67 -65 -164 -115
-209 -82 -72 -170 -101 -361 -118 -205 -19 -253 -33 -374 -114 -86 -56 -155
-79 -321 -106 -71 -11 -168 -27 -215 -35 -47 -7 -121 -20 -165 -27 -45 -7
-149 -12 -240 -12 -168 2 -163 1 -585 94 -52 11 -113 25 -135 30 -22 4 -71 16
-110 25 -142 34 -284 65 -375 81 -19 4 -41 11 -48 17 -24 19 -46 71 -52 122
-5 49 -6 50 -45 57 -126 21 -228 75 -331 176 -86 86 -121 130 -191 242 -124
201 -215 414 -263 617 -11 48 -23 97 -25 108 -23 88 -45 299 -45 428 0 180 -5
193 -102 279 -37 34 -77 75 -88 93 -30 48 -52 250 -39 362 12 112 18 152 29
183 26 78 44 142 55 195 15 67 22 45 -86 254 l-44 84 1 116 c0 78 6 137 18
181 9 36 23 88 31 115 22 85 45 169 55 200 5 17 27 106 50 200 56 229 107 378
179 518 79 156 150 243 259 319 41 28 42 31 35 66 -14 72 -2 140 33 181 14 17
53 47 87 67 40 24 116 92 212 189 168 170 228 212 440 304 28 12 59 26 70 31
45 20 206 68 300 89 55 13 107 26 115 30 8 4 34 36 58 72 91 138 176 197 362
253 56 16 306 69 414 87 34 5 93 16 131 23 39 8 75 15 80 15 6 1 21 -22 34
-49z"/>
<path d="M5713 9252 c-18 -9 -80 -51 -138 -92 -58 -41 -131 -93 -163 -115 -31
-22 -102 -76 -156 -120 -54 -44 -113 -91 -130 -104 -78 -61 -310 -307 -329
-351 -4 -8 -15 -27 -25 -41 -41 -62 -152 -250 -152 -258 0 -5 -7 -14 -15 -21
-8 -7 -15 -22 -15 -34 0 -12 -4 -26 -9 -31 -26 -26 -141 -421 -141 -484 0 -20
-7 -58 -15 -85 -22 -72 -21 -314 2 -381 22 -65 83 -157 114 -172 59 -29 136
-143 175 -259 45 -135 111 -226 191 -266 25 -12 48 -29 50 -36 7 -17 -35 -62
-58 -62 -27 0 -111 -46 -139 -75 -23 -24 -25 -34 -24 -113 0 -119 31 -177 119
-226 36 -20 160 -66 195 -73 44 -8 92 -37 101 -61 17 -43 -31 -85 -181 -158
-65 -33 -165 -130 -173 -170 -29 -135 -30 -155 -19 -221 20 -120 24 -138 36
-148 7 -5 21 -26 32 -45 10 -19 33 -53 49 -75 40 -54 283 -278 376 -348 41
-30 97 -76 124 -101 28 -26 89 -74 137 -107 48 -32 93 -65 100 -72 13 -12 53
-40 93 -64 135 -81 417 -173 532 -173 28 0 67 -7 86 -15 20 -8 67 -15 104 -15
37 0 90 -7 117 -15 62 -19 217 -20 276 -1 25 8 68 21 96 30 29 9 61 16 73 16
37 0 206 78 266 124 61 46 80 66 115 126 44 73 79 110 104 110 12 0 34 7 50
15 15 8 45 15 65 15 20 1 47 7 61 15 14 8 36 14 49 15 13 0 44 6 70 14 25 8
71 22 101 30 375 107 372 106 446 147 139 76 134 73 228 143 99 74 100 75 184
188 72 95 142 222 142 255 0 11 5 24 10 29 6 6 13 54 17 108 8 123 20 136 126
136 147 0 284 105 371 285 70 143 165 262 276 345 126 94 250 249 250 313 0
10 6 28 12 40 7 12 16 81 19 152 4 72 12 148 17 170 6 22 16 65 23 95 7 30 20
73 30 95 60 134 83 350 58 559 -21 187 -83 448 -129 551 -63 140 -162 330
-202 389 -84 122 -163 219 -252 307 -75 75 -89 80 -161 55 -101 -35 -341 -72
-388 -61 -33 9 -50 -16 -80 -120 -48 -167 -77 -351 -77 -488 l0 -94 93 -61
c207 -136 272 -185 421 -318 55 -49 117 -103 136 -120 19 -16 57 -50 85 -76
57 -53 168 -117 245 -143 46 -15 124 -17 195 -4 18 4 20 -2 23 -51 4 -70 -35
-248 -68 -311 -12 -21 -36 -105 -51 -174 -5 -22 -11 -94 -14 -160 -11 -215
-19 -227 -161 -226 -49 0 -120 7 -158 16 -71 17 -209 76 -221 94 -3 6 -30 26
-60 46 -30 19 -79 50 -107 69 -29 18 -73 44 -98 56 -25 12 -53 26 -62 31 -10
5 -33 9 -53 9 -47 0 -59 -25 -53 -109 7 -92 22 -118 213 -366 72 -93 85 -127
85 -218 0 -83 -6 -100 -53 -159 -37 -46 -90 -82 -164 -110 -73 -28 -244 -30
-339 -5 -34 10 -67 17 -73 17 -14 0 -4 -128 12 -147 10 -14 86 -60 176 -108
31 -16 62 -41 68 -55 32 -64 3 -221 -64 -345 -54 -99 -206 -263 -303 -326
-135 -89 -311 -170 -440 -203 -14 -4 -50 -14 -80 -22 -67 -19 -166 -41 -240
-54 -52 -9 -89 -19 -203 -55 -59 -19 -87 -19 -87 -1 0 13 20 61 83 201 101
225 224 329 358 304 30 -5 91 -12 136 -16 73 -5 86 -3 117 16 44 27 68 90 45
117 -21 25 -93 53 -168 65 -36 6 -89 14 -118 19 -28 4 -161 9 -295 9 -214 1
-247 -1 -278 -16 -46 -24 -62 -57 -56 -115 6 -54 -1 -58 -61 -33 -47 20 -133
19 -180 -1 -56 -25 -93 -40 -143 -60 -62 -25 -144 -78 -164 -105 -26 -38 -20
-78 18 -113 40 -38 84 -52 193 -62 46 -3 90 -12 100 -19 15 -11 14 -14 -9 -29
-15 -10 -62 -21 -110 -26 -184 -20 -231 -40 -263 -110 -12 -27 -15 -50 -11
-77 4 -21 10 -81 14 -133 4 -52 13 -106 21 -119 25 -46 31 -81 14 -88 -15 -6
-129 5 -298 28 -44 6 -109 15 -145 19 -36 5 -99 18 -140 30 -41 11 -89 25
-106 29 -31 8 -205 97 -214 110 -3 4 -23 18 -45 31 -22 13 -44 28 -50 33 -5 4
-100 79 -210 167 -110 88 -201 163 -202 167 -7 21 20 35 83 43 38 6 104 15
147 21 45 7 157 10 270 8 333 -7 557 -1 557 14 0 28 -71 95 -133 125 -66 33
-145 43 -176 23 -9 -6 -22 -6 -34 1 -16 8 -19 18 -15 62 7 88 52 157 151 237
26 21 44 40 40 42 -5 3 -69 6 -143 8 l-135 4 -23 -50 c-49 -102 -128 -172
-239 -212 -64 -23 -264 -23 -343 0 -183 53 -264 105 -315 201 -31 59 -31 74 1
142 24 51 32 58 96 89 38 19 79 37 91 41 38 12 97 65 117 105 12 23 20 58 20
88 0 44 -4 54 -36 85 -35 34 -96 60 -172 72 -23 4 -45 11 -48 15 -3 5 -15 9
-27 9 -34 0 -114 56 -142 99 -34 50 -31 100 5 118 23 11 85 29 180 53 89 22
169 42 215 55 137 37 355 56 488 43 54 -5 101 -7 104 -4 11 10 -54 59 -128 97
-42 21 -117 50 -166 64 -86 25 -100 26 -311 23 l-220 -2 -39 28 c-81 60 -128
126 -165 231 -33 95 -48 121 -107 185 -62 67 -66 100 -21 184 64 122 175 241
299 321 168 107 340 180 486 204 33 6 87 15 120 21 33 6 169 10 305 9 264 -2
255 -3 342 55 42 27 88 104 88 144 0 33 -1 34 -17 19 -29 -26 -134 -73 -192
-87 -90 -21 -223 -10 -306 25 -149 64 -258 67 -445 11 -161 -49 -208 -57 -318
-59 l-113 -2 -29 32 c-44 49 -53 98 -48 263 4 132 8 154 38 243 31 91 40 104
120 195 81 91 195 195 335 306 33 26 68 54 78 62 16 13 82 59 182 128 17 12
32 23 35 26 16 19 156 103 214 130 37 17 65 34 62 37 -4 4 -28 10 -54 14 -26
3 -60 9 -77 13 -20 4 -41 0 -62 -12z m3840 -539 c21 -20 37 -40 37 -45 0 -4
15 -25 34 -45 57 -65 111 -152 190 -309 42 -82 76 -154 76 -158 0 -4 7 -22 15
-39 19 -42 74 -287 68 -303 -3 -7 -18 -11 -41 -8 -20 2 -87 5 -148 8 -69 3
-125 10 -149 20 -20 9 -48 16 -61 16 -32 0 -30 8 14 65 l37 48 0 126 c0 125
-14 197 -52 271 -7 14 -13 28 -13 33 0 25 -111 157 -132 157 -5 0 -8 9 -8 20
0 13 9 22 25 26 38 9 55 41 55 101 0 29 4 53 8 53 5 0 25 -16 45 -37z"/>
<path d="M6437 9126 c-20 -20 -16 -59 16 -180 32 -116 34 -202 11 -406 -26
-232 -29 -433 -9 -523 19 -86 30 -102 40 -56 4 17 17 52 30 78 38 77 134 285
159 345 21 51 34 144 46 321 10 156 33 237 89 318 17 25 31 50 31 55 0 12 -49
22 -105 22 -24 0 -78 6 -121 14 -147 27 -170 28 -187 12z"/>
<path d="M8370 8979 c-30 -3 -123 -29 -205 -56 -256 -86 -377 -93 -502 -27
-36 19 -68 34 -70 34 -3 0 -2 -62 2 -137 16 -323 10 -534 -20 -705 -6 -39 15
-36 43 6 25 37 90 94 164 145 71 48 82 75 83 207 0 136 10 154 84 154 54 0 94
-25 218 -136 113 -101 195 -136 351 -150 58 -5 72 -4 72 7 0 8 -35 48 -78 90
-99 97 -152 181 -152 240 0 39 5 48 55 95 68 65 86 102 73 157 -18 79 -28 86
-118 76z"/>
<path d="M6112 8549 c-29 -5 -61 -13 -70 -18 -9 -5 -52 -18 -95 -30 -104 -28
-151 -59 -182 -121 -34 -66 -34 -128 0 -168 43 -52 138 -63 310 -38 161 24
258 76 272 148 3 18 16 34 33 43 15 8 33 29 41 46 12 30 11 36 -13 78 -20 36
-34 49 -64 58 -46 13 -156 14 -232 2z"/>
<path d="M7029 8363 c-23 -3 -51 -16 -75 -37 l-39 -34 0 -228 c1 -220 2 -231
23 -266 13 -20 34 -39 47 -42 47 -12 110 15 150 63 52 62 129 170 146 203 29
57 50 161 43 209 -8 49 -54 106 -101 125 -30 13 -110 16 -194 7z"/>
<path d="M7840 7972 c-40 -11 -75 -39 -97 -79 -62 -112 -24 -242 108 -372 63
-61 116 -91 164 -93 64 -2 90 44 111 197 30 223 -34 330 -206 348 -30 3 -66 2
-80 -1z"/>
<path d="M7119 7748 c-14 -27 -5 -170 15 -243 24 -84 86 -223 120 -270 20 -26
126 -237 162 -320 7 -16 20 -46 28 -65 9 -20 20 -56 24 -80 6 -39 11 -45 34
-48 46 -5 174 63 238 126 86 87 104 132 104 272 -1 138 -12 169 -87 244 -53
52 -241 182 -332 230 -59 31 -62 33 -184 114 -51 34 -97 62 -102 62 -5 0 -14
-10 -20 -22z"/>
<path d="M8905 7706 c-42 -23 -85 -90 -85 -132 0 -66 86 -173 155 -194 43 -13
369 -26 407 -17 25 7 58 62 58 98 0 70 -67 148 -167 195 -169 79 -286 95 -368
50z"/>
<path d="M5650 7360 c-188 -69 -304 -170 -330 -286 -23 -100 64 -152 234 -139
198 15 334 102 386 247 20 53 -2 121 -52 161 -32 26 -47 30 -110 34 -56 3 -86
-1 -128 -17z"/>
<path d="M6465 6928 c-50 -18 -197 -118 -246 -169 -53 -53 -74 -88 -84 -139
-11 -64 0 -69 179 -81 137 -9 171 -8 240 6 82 17 94 22 134 63 37 39 52 78 52
139 0 59 -8 79 -53 127 -57 61 -143 82 -222 54z"/>
<path d="M8187 6571 c-49 -23 -81 -54 -109 -105 -19 -35 -22 -56 -22 -141 0
-86 4 -111 28 -175 26 -67 67 -155 113 -245 36 -69 78 -92 115 -62 32 26 145
234 180 332 40 114 14 255 -62 333 -78 80 -160 101 -243 63z"/>
<path d="M7145 6159 c-50 -51 -88 -74 -161 -99 -64 -23 -191 -27 -290 -10 -32
6 -72 12 -87 15 -26 4 -22 -1 31 -46 79 -66 105 -106 138 -207 23 -72 26 -96
22 -178 -2 -51 -3 -94 -1 -94 2 0 31 27 65 60 97 94 223 150 336 150 62 0 194
-24 262 -48 56 -20 89 -35 193 -91 81 -43 94 -41 60 12 -15 23 -34 49 -43 58
-8 8 -26 30 -40 48 -40 53 -120 131 -190 185 -128 98 -230 218 -230 271 0 26
-23 17 -65 -26z"/>
<path d="M6011 6079 c-47 -19 -250 -245 -265 -296 -10 -33 19 -87 58 -108 59
-32 226 -9 308 42 82 50 127 125 128 209 0 115 -121 196 -229 153z"/>
<path d="M5848 4738 c-36 -8 -57 -20 -88 -54 -36 -39 -40 -49 -40 -94 0 -28 5
-60 10 -71 15 -26 70 -48 163 -65 121 -22 189 4 223 85 29 70 8 176 -38 185
-136 29 -153 30 -230 14z"/>
</g>
</svg>
