<svg id="svg" version="1.1" width="512" height="499" xmlns="http://www.w3.org/2000/svg"><path d="M281.877 21.317 C 278.956 23.068,275.535 26.036,274.273 27.913 C 270.838 33.024,267.954 43.507,267.508 52.500 L 267.111 60.500 268.115 54.000 C 270.810 36.552,274.192 29.205,282.163 23.479 L 287.369 19.738 289.185 21.980 C 291.012 24.236,291.149 25.291,291.405 39.000 C 291.539 46.138,293.224 53.990,298.605 72.549 C 300.433 78.852,301.169 84.924,301.998 100.549 C 302.581 111.522,303.382 123.200,303.779 126.500 C 304.188 129.904,303.968 137.476,303.270 144.000 C 301.257 162.823,300.877 168.796,301.872 166.000 C 302.896 163.120,304.739 147.607,305.613 134.500 C 306.050 127.940,305.777 123.653,304.607 118.688 C 303.526 114.106,303.000 107.221,303.000 97.656 C 303.000 87.688,302.529 81.801,301.423 77.968 C 300.556 74.961,299.181 69.800,298.367 66.500 C 297.553 63.200,296.012 57.071,294.943 52.880 C 293.674 47.903,293.000 41.884,293.000 35.531 C 293.000 25.636,291.442 19.767,288.516 18.645 C 287.785 18.364,284.797 19.567,281.877 21.317 M271.157 24.273 C 266.889 30.476,265.243 34.977,262.891 46.888 C 260.042 61.309,257.862 67.301,249.937 82.500 C 243.397 95.042,238.867 107.597,237.491 117.000 C 237.128 119.475,236.195 123.719,235.416 126.432 C 234.637 129.144,234.014 132.969,234.030 134.932 C 234.057 138.101,234.189 138.279,235.206 136.525 C 236.674 133.993,240.164 117.075,239.455 115.928 C 238.640 114.608,243.853 98.348,247.447 91.000 C 249.195 87.425,252.491 81.028,254.770 76.784 C 259.373 68.214,263.020 56.923,265.409 43.843 C 267.257 33.732,270.076 26.604,273.751 22.750 C 275.194 21.238,275.862 20.000,275.235 20.000 C 274.609 20.000,272.773 21.923,271.157 24.273 M296.123 38.741 C 296.023 43.814,296.765 46.994,300.092 55.741 C 304.194 66.528,306.361 75.007,310.253 95.500 C 312.796 108.893,312.976 129.316,310.637 139.113 C 308.509 148.027,307.644 154.930,308.907 152.930 C 310.504 150.399,312.985 137.327,314.010 126.042 C 314.757 117.812,314.623 113.231,313.380 104.542 C 311.178 89.147,304.694 61.884,301.098 52.904 C 299.442 48.769,297.673 42.486,297.167 38.943 L 296.247 32.500 296.123 38.741 M284.672 41.675 C 280.678 55.937,280.214 61.974,280.877 91.000 C 281.213 105.719,281.349 106.798,282.136 101.000 C 282.675 97.029,282.622 89.666,281.999 82.077 C 280.862 68.221,281.358 60.287,284.093 48.556 C 285.111 44.186,285.773 40.440,285.564 40.230 C 285.354 40.021,284.953 40.671,284.672 41.675 M278.111 47.782 C 277.403 50.377,276.655 56.100,276.448 60.500 C 276.092 68.100,276.119 68.225,276.993 63.000 C 277.499 59.975,278.429 54.434,279.059 50.686 C 280.414 42.628,279.925 41.131,278.111 47.782 M158.143 66.533 C 153.800 70.187,152.628 74.750,153.289 85.428 C 153.680 91.753,154.899 97.831,157.315 105.500 C 159.220 111.550,161.538 120.325,162.465 125.000 C 164.486 135.188,167.950 147.383,168.630 146.703 C 168.899 146.435,168.416 143.798,167.557 140.844 C 166.698 137.890,165.097 130.758,163.999 124.995 C 162.901 119.231,160.688 110.687,159.082 106.008 C 155.334 95.089,153.303 79.643,154.956 74.633 C 156.273 70.643,161.159 66.000,164.042 66.000 C 166.219 66.000,167.571 68.193,169.594 75.005 C 170.782 79.004,172.828 81.636,181.267 90.019 C 190.662 99.353,203.539 109.794,204.487 108.847 C 204.704 108.630,201.767 106.017,197.960 103.040 C 194.153 100.063,191.212 97.455,191.423 97.244 C 191.634 97.033,193.653 97.802,195.909 98.954 C 201.391 101.750,212.956 112.780,218.361 120.367 C 223.215 127.180,229.000 138.112,229.000 140.471 C 229.000 141.312,229.450 142.000,230.000 142.000 C 232.183 142.000,230.726 137.483,224.844 126.016 C 219.554 115.701,217.762 113.191,212.094 108.154 C 206.118 102.844,195.018 95.000,193.478 95.000 C 192.248 95.000,183.392 88.483,178.782 84.184 C 175.539 81.161,173.408 78.022,171.966 74.143 C 170.812 71.039,169.213 67.487,168.411 66.250 C 166.431 63.192,161.968 63.315,158.143 66.533 M159.254 70.277 C 157.797 71.891,157.518 74.021,157.608 82.860 C 157.716 93.519,158.599 97.875,162.907 109.000 C 164.078 112.025,165.927 119.450,167.016 125.500 C 168.104 131.550,170.121 140.005,171.497 144.288 C 172.874 148.572,174.000 152.708,174.000 153.481 C 174.000 156.057,185.338 167.174,193.972 173.065 C 198.662 176.265,206.166 182.397,210.646 186.692 C 217.747 193.499,218.997 195.225,220.396 200.154 C 221.278 203.264,221.970 206.864,221.932 208.154 L 221.865 210.500 220.811 208.321 C 220.232 207.123,218.944 206.204,217.948 206.279 C 216.953 206.354,216.361 206.776,216.634 207.216 C 216.906 207.657,216.087 208.435,214.814 208.945 C 213.018 209.666,212.901 209.887,214.293 209.937 C 216.521 210.015,226.636 217.238,230.000 221.152 C 232.258 223.779,233.166 224.084,239.372 224.297 L 246.243 224.534 245.553 213.329 C 245.077 205.589,245.218 201.462,246.009 199.982 C 247.040 198.057,246.923 197.874,244.848 198.170 C 241.310 198.676,240.357 202.737,242.347 208.823 C 244.083 214.130,244.618 223.500,243.133 222.582 C 242.656 222.287,242.046 220.099,241.778 217.720 C 241.509 215.340,239.875 210.428,238.145 206.804 C 236.415 203.179,235.000 199.750,235.000 199.184 C 235.000 198.617,233.936 196.881,232.637 195.327 C 231.337 193.772,229.253 190.475,228.006 188.000 C 226.759 185.525,223.091 179.399,219.855 174.386 C 213.436 164.444,210.085 157.006,207.512 146.991 C 205.430 138.886,204.079 137.291,204.691 143.663 C 206.124 158.578,209.824 169.595,216.252 178.088 C 218.467 181.015,222.384 187.507,224.957 192.515 C 227.531 197.524,230.090 201.470,230.646 201.285 C 232.927 200.524,235.839 211.564,234.176 214.671 C 233.496 215.942,233.507 217.191,234.210 218.526 C 235.176 220.358,235.091 220.348,233.035 218.382 C 231.130 216.561,229.378 209.793,230.947 210.316 C 232.376 210.792,231.317 208.217,229.035 205.666 C 227.641 204.107,225.978 201.407,225.340 199.666 C 224.021 196.067,218.121 185.455,209.857 171.814 C 203.509 161.336,193.568 151.058,187.747 148.953 C 185.686 148.208,184.000 147.287,184.000 146.906 C 184.000 146.525,183.302 145.946,182.448 145.618 C 179.737 144.578,181.889 146.826,189.152 152.621 C 196.735 158.672,206.326 170.740,211.157 180.312 C 212.793 183.552,213.940 186.394,213.706 186.628 C 213.472 186.861,211.609 185.128,209.567 182.776 C 207.524 180.424,204.195 176.700,202.168 174.500 C 200.141 172.300,198.487 170.219,198.492 169.876 C 198.512 168.328,191.745 159.120,187.926 155.500 C 183.037 150.866,183.555 152.115,190.000 160.500 C 192.536 163.800,195.005 167.151,195.486 167.947 C 197.335 171.004,189.903 164.684,183.165 157.470 C 175.126 148.862,175.252 149.177,168.853 121.530 C 168.220 118.796,165.935 111.158,163.774 104.556 C 161.614 97.954,159.596 89.566,159.290 85.916 C 158.720 79.125,160.485 68.564,162.030 69.519 C 162.488 69.801,163.098 69.650,163.387 69.183 C 164.446 67.469,160.954 68.393,159.254 70.277 M162.079 75.750 C 162.166 80.978,162.651 80.555,163.227 74.750 C 163.431 72.688,163.239 71.000,162.799 71.000 C 162.360 71.000,162.036 73.138,162.079 75.750 M284.320 77.000 C 284.320 80.575,284.502 82.037,284.723 80.250 C 284.945 78.463,284.945 75.537,284.723 73.750 C 284.502 71.963,284.320 73.425,284.320 77.000 M171.015 82.221 C 171.007 82.618,172.056 85.318,173.346 88.221 C 175.876 93.911,181.605 100.762,182.779 99.500 C 183.176 99.075,182.935 98.524,182.244 98.278 C 181.554 98.031,179.206 94.830,177.028 91.165 C 172.149 82.955,171.035 81.297,171.015 82.221 M253.219 94.227 C 250.431 99.877,247.011 107.343,245.618 110.817 C 243.050 117.224,237.913 142.401,238.105 147.639 C 238.163 149.213,239.691 143.075,241.501 134.000 C 244.737 117.772,248.187 106.708,251.915 100.598 C 254.351 96.607,259.242 84.909,258.702 84.369 C 258.474 84.141,256.007 88.577,253.219 94.227 M276.748 94.000 C 276.971 99.775,277.308 104.950,277.498 105.500 C 278.194 107.520,277.777 88.417,277.072 86.000 C 276.671 84.625,276.526 88.225,276.748 94.000 M163.575 96.054 C 163.924 99.049,165.105 104.200,166.199 107.500 C 170.358 120.049,184.901 145.797,187.072 144.456 C 187.758 144.031,187.585 143.069,186.568 141.655 C 177.402 128.912,169.449 112.472,166.072 99.289 C 163.720 90.111,162.734 88.832,163.575 96.054 M168.067 93.114 C 167.898 99.696,177.005 121.574,184.663 132.982 C 188.063 138.048,187.567 136.356,182.416 125.321 C 176.764 113.210,171.112 99.814,169.413 94.500 C 168.352 91.184,168.122 90.947,168.067 93.114 M173.086 96.750 C 174.930 101.638,178.931 107.801,181.652 109.941 C 185.395 112.885,185.802 111.679,182.383 107.774 C 180.797 105.963,177.991 102.123,176.146 99.241 C 172.389 93.371,171.557 92.693,173.086 96.750 M286.233 109.000 C 286.231 119.726,286.485 123.268,287.057 120.500 C 288.074 115.584,288.038 100.581,287.000 96.500 C 286.552 94.741,286.235 99.910,286.233 109.000 M52.575 107.255 C 50.895 115.143,55.786 131.880,63.225 143.698 C 69.020 152.903,79.066 166.268,79.708 165.626 C 80.370 164.963,76.977 159.304,70.938 151.000 C 60.811 137.074,55.265 123.922,54.069 111.000 C 53.426 104.044,53.317 103.772,52.575 107.255 M194.500 109.455 C 196.700 111.339,200.457 113.901,202.850 115.149 C 207.170 117.402,216.000 125.319,216.000 126.940 C 216.000 127.405,216.675 128.045,217.500 128.362 C 219.738 129.221,219.345 127.863,215.806 122.521 C 213.305 118.745,211.298 117.100,206.556 114.939 C 203.225 113.421,198.591 110.789,196.259 109.090 C 190.589 104.959,189.511 105.183,194.500 109.455 M64.536 115.500 C 71.341 134.407,77.847 144.377,89.500 153.752 C 99.003 161.398,114.845 180.209,124.272 195.040 C 127.434 200.015,135.043 208.000,136.622 208.000 C 137.374 208.000,131.898 200.633,130.801 200.170 C 129.792 199.744,116.112 181.875,113.500 177.570 C 109.273 170.604,99.410 158.961,94.681 155.355 C 91.964 153.282,90.274 151.409,90.926 151.191 C 91.578 150.974,89.709 149.293,86.772 147.456 C 79.258 142.756,67.828 125.497,69.442 121.289 C 69.720 120.565,68.568 118.517,66.882 116.736 C 64.720 114.454,64.028 114.090,64.536 115.500 M382.953 115.986 C 375.213 116.943,360.332 121.757,350.441 126.503 C 339.148 131.924,327.468 140.467,314.907 152.494 C 309.577 157.598,308.076 159.736,307.073 163.654 C 304.994 171.777,304.383 172.613,297.831 176.301 C 290.439 180.463,283.337 187.189,277.881 195.195 C 272.932 202.457,272.967 203.415,278.000 198.500 C 282.581 194.027,283.107 194.477,279.500 199.785 C 278.125 201.809,276.980 204.822,276.955 206.482 C 276.930 208.142,276.250 210.850,275.444 212.500 C 274.345 214.749,274.083 214.936,274.396 213.246 C 274.634 211.964,273.997 210.025,272.917 208.746 C 271.023 206.504,271.021 206.509,271.648 212.250 C 272.126 216.632,271.965 218.000,270.971 218.000 C 270.254 218.000,269.933 218.266,270.258 218.591 C 270.583 218.917,271.788 218.885,272.936 218.520 C 275.262 217.782,277.407 214.120,278.315 209.335 C 279.276 204.272,285.726 195.064,293.656 187.432 C 297.695 183.545,301.000 179.833,301.000 179.182 C 301.000 178.532,301.427 178.000,301.948 178.000 C 303.608 178.000,300.830 184.260,296.622 190.000 C 294.404 193.025,289.707 198.546,286.183 202.269 C 281.238 207.493,279.904 209.526,280.337 211.180 C 281.284 214.803,278.456 218.651,272.324 222.079 C 270.413 223.148,268.948 225.249,267.792 228.579 C 265.400 235.469,256.057 244.598,248.850 247.087 C 245.907 248.103,244.018 248.949,244.652 248.967 C 246.665 249.024,248.001 255.024,247.976 263.899 C 247.951 272.909,245.807 280.207,241.304 286.608 C 240.185 288.198,239.057 291.750,238.797 294.500 C 238.537 297.250,235.971 306.925,233.095 316.000 C 223.690 345.676,223.190 347.422,222.003 354.724 C 221.115 360.182,221.109 362.799,221.976 365.426 C 224.372 372.688,220.535 397.371,214.528 413.329 C 213.138 417.023,212.000 420.799,212.000 421.719 C 212.000 424.085,207.012 431.000,205.305 431.000 C 204.484 431.000,204.184 430.512,204.595 429.845 C 205.038 429.130,204.870 428.962,204.155 429.405 C 203.520 429.797,203.000 430.991,203.000 432.059 C 203.000 434.675,207.336 434.664,209.959 432.041 C 212.763 429.237,215.982 422.555,218.104 415.137 C 219.113 411.609,221.770 405.691,224.008 401.987 C 226.856 397.273,228.555 392.888,229.669 387.376 C 230.544 383.044,232.597 376.835,234.231 373.578 C 237.476 367.110,237.911 361.930,236.031 352.114 C 235.464 349.151,235.000 344.673,235.000 342.164 C 235.000 338.869,234.697 337.903,233.910 338.690 C 233.221 339.379,233.033 342.122,233.399 346.140 C 235.259 366.571,235.278 365.531,232.964 370.133 C 231.755 372.535,230.129 375.227,229.350 376.116 C 228.571 377.004,227.558 381.073,227.100 385.157 C 226.309 392.215,224.205 398.137,222.007 399.496 C 220.733 400.283,220.738 400.189,222.535 390.027 C 223.446 384.873,223.953 376.647,223.829 369.027 L 223.625 356.500 228.167 344.500 C 230.666 337.900,234.761 327.100,237.269 320.500 C 239.777 313.900,242.142 306.813,242.525 304.750 C 243.793 297.931,245.024 300.820,244.443 309.250 C 243.969 316.142,244.294 319.063,246.423 327.000 L 248.971 336.500 248.409 325.500 C 247.912 315.772,248.202 312.785,250.915 299.669 C 252.602 291.512,254.216 284.460,254.501 283.999 C 255.515 282.358,264.399 277.939,265.688 278.434 C 267.717 279.212,267.237 281.000,265.000 281.000 C 262.657 281.000,262.333 282.530,264.500 283.362 C 265.325 283.678,266.000 284.596,266.000 285.401 C 266.000 287.194,271.152 291.000,273.579 291.000 C 275.140 291.000,275.084 290.718,273.105 288.611 C 271.692 287.108,270.306 283.542,269.364 278.989 C 267.023 267.678,263.948 261.714,258.337 257.598 C 253.462 254.022,250.000 253.012,250.000 255.167 C 250.000 255.808,249.708 256.041,249.351 255.685 C 248.463 254.797,253.145 246.158,254.875 245.495 C 255.962 245.077,256.144 245.725,255.703 248.441 C 255.199 251.547,255.482 252.135,258.319 253.891 C 263.482 257.087,266.443 260.912,271.946 271.500 C 274.805 277.000,277.811 282.237,278.626 283.138 C 280.368 285.064,280.426 286.218,279.247 295.500 C 278.382 302.318,278.337 302.400,277.554 298.675 C 277.111 296.572,276.373 295.227,275.913 295.687 C 274.931 296.669,277.228 312.978,279.999 324.697 C 283.163 338.077,290.590 351.556,301.381 363.500 C 304.824 367.311,304.946 367.362,303.957 364.579 C 303.386 362.973,301.418 359.598,299.583 357.079 C 291.907 346.544,289.382 339.308,284.541 313.965 C 280.791 294.338,280.392 290.494,282.000 289.500 C 282.550 289.160,283.032 286.996,283.070 284.691 C 283.125 281.433,283.332 280.945,284.000 282.500 C 285.183 285.254,285.207 290.754,284.038 291.476 C 283.102 292.055,287.321 304.853,290.432 310.868 C 292.563 314.988,303.542 325.573,308.643 328.424 C 313.667 331.232,314.486 330.148,309.886 326.780 C 303.794 322.319,296.154 311.855,291.888 302.128 C 288.279 293.898,284.615 283.000,285.458 283.000 C 285.610 283.000,286.976 284.913,288.494 287.250 C 290.012 289.587,297.609 297.765,305.377 305.422 C 315.239 315.144,317.992 318.296,314.500 315.870 C 311.750 313.960,308.931 312.052,308.236 311.631 C 307.040 310.906,311.217 318.587,314.962 324.000 C 317.469 327.623,322.879 338.601,325.153 344.680 C 327.329 350.495,331.105 354.026,339.877 358.450 C 342.834 359.942,348.234 363.317,351.877 365.950 C 360.786 372.391,363.066 373.414,373.132 375.486 C 382.893 377.496,397.773 377.264,400.427 375.061 C 402.950 372.967,402.260 369.153,398.535 364.608 C 396.630 362.283,392.802 355.289,390.029 349.066 C 384.161 335.895,380.829 331.103,370.817 321.434 C 355.794 306.927,347.102 299.835,342.763 298.544 C 337.793 297.064,329.000 295.663,329.000 296.350 C 329.000 296.610,332.262 298.073,336.250 299.601 C 341.697 301.688,345.117 303.885,350.003 308.439 C 353.579 311.773,358.529 316.334,361.003 318.575 C 363.476 320.817,367.381 324.711,369.681 327.228 C 371.980 329.745,374.099 331.568,374.388 331.278 C 375.087 330.580,388.867 351.844,389.646 354.823 C 390.589 358.430,388.759 359.439,384.865 357.461 C 380.111 355.045,374.167 350.088,361.449 337.932 C 350.916 327.865,337.643 317.000,335.877 317.000 C 335.424 317.000,330.273 314.045,324.430 310.433 C 316.122 305.298,314.209 304.432,315.653 306.460 C 318.418 310.342,335.980 323.339,341.104 325.296 C 343.971 326.390,349.350 330.476,356.042 336.641 C 371.366 350.758,380.304 357.628,389.113 362.057 C 397.827 366.438,401.364 370.623,398.418 373.068 C 395.713 375.313,382.368 375.375,373.500 373.184 C 362.816 370.543,361.187 369.834,356.144 365.620 C 353.773 363.639,347.707 359.586,342.666 356.613 C 329.847 349.053,328.398 347.725,326.435 341.737 C 325.491 338.857,323.882 335.306,322.859 333.846 C 321.837 332.386,321.000 330.628,321.000 329.940 C 321.000 329.252,319.852 327.184,318.449 325.344 C 317.046 323.505,316.337 322.000,316.872 322.000 C 317.715 322.000,323.565 326.361,325.000 328.060 C 325.275 328.385,329.550 331.751,334.500 335.539 C 339.450 339.327,346.200 344.699,349.500 347.478 C 355.480 352.512,363.400 358.297,361.500 356.242 C 358.030 352.490,338.339 335.990,332.500 331.942 C 318.679 322.360,317.161 320.037,329.288 327.029 C 333.131 329.245,336.456 330.877,336.676 330.657 C 336.897 330.437,333.900 327.836,330.017 324.878 C 319.761 317.066,293.046 284.907,286.349 272.312 C 282.331 264.755,286.105 267.178,301.605 282.107 C 314.964 294.974,322.085 299.483,337.766 305.005 C 344.860 307.503,343.624 306.082,334.778 301.567 C 320.760 294.413,317.409 292.081,305.782 281.383 C 299.337 275.454,294.243 270.423,294.462 270.204 C 294.960 269.706,306.838 274.411,313.500 277.745 C 316.250 279.121,322.550 283.048,327.500 286.471 C 332.450 289.895,337.656 292.977,339.069 293.322 C 340.482 293.666,346.137 293.557,351.636 293.079 C 359.257 292.417,363.472 291.445,369.369 288.990 C 373.623 287.219,376.904 285.571,376.660 285.327 C 376.416 285.083,373.580 285.986,370.358 287.333 C 361.695 290.956,353.867 292.290,345.943 291.494 C 338.465 290.743,334.603 288.772,324.521 280.560 C 321.443 278.054,317.114 275.078,314.900 273.949 C 309.617 271.254,292.296 267.000,286.604 267.000 C 282.292 267.000,279.939 268.226,281.911 269.445 C 282.430 269.765,283.400 271.709,284.068 273.764 C 284.736 275.819,286.768 279.161,288.584 281.190 C 290.401 283.220,292.613 286.370,293.500 288.190 L 295.114 291.500 292.307 288.391 C 290.763 286.681,288.256 283.659,286.737 281.677 C 284.992 279.401,283.427 278.283,282.490 278.642 C 281.331 279.087,281.119 278.589,281.516 276.355 C 282.112 273.007,280.709 270.932,276.311 268.659 C 269.706 265.247,268.047 258.863,272.584 254.325 C 274.831 252.078,275.776 251.809,279.834 252.260 C 282.400 252.545,285.384 252.451,286.464 252.051 C 288.192 251.411,288.076 251.236,285.496 250.588 C 283.884 250.184,280.161 248.716,277.224 247.326 C 274.287 245.937,269.221 244.558,265.967 244.263 C 262.713 243.968,260.291 243.338,260.584 242.863 C 261.595 241.228,270.514 242.047,277.130 244.383 C 281.833 246.043,285.126 246.587,288.457 246.254 C 293.124 245.789,293.151 245.804,292.827 248.643 C 292.586 250.749,291.580 251.960,289.000 253.248 C 285.731 254.882,285.669 254.997,288.063 254.998 C 289.607 254.999,291.769 253.807,293.502 251.998 C 295.452 249.962,296.611 249.371,297.101 250.163 C 298.010 251.635,302.397 251.473,314.534 249.520 C 325.737 247.717,331.751 248.365,342.500 252.532 C 346.627 254.132,351.963 255.360,355.500 255.524 C 358.800 255.677,365.100 256.316,369.500 256.942 C 383.318 258.911,400.657 259.149,416.500 257.587 C 431.308 256.128,431.359 256.114,420.500 256.546 C 414.450 256.786,405.117 257.277,399.759 257.638 C 390.185 258.282,380.405 257.422,364.000 254.493 C 359.875 253.757,354.589 252.890,352.253 252.566 C 349.917 252.242,345.417 250.808,342.253 249.380 C 329.309 243.536,323.363 242.942,308.470 246.006 C 298.220 248.115,296.730 247.875,295.471 243.910 C 295.047 242.572,293.911 241.986,291.683 241.953 C 288.509 241.907,288.513 241.900,293.237 239.441 C 298.305 236.803,309.267 234.154,312.406 234.809 C 313.722 235.084,312.420 236.044,308.193 237.915 C 302.331 240.509,297.525 243.859,298.404 244.737 C 298.632 244.966,303.386 243.312,308.966 241.062 C 321.036 236.196,346.117 230.727,356.835 230.625 C 362.431 230.572,363.498 230.358,361.335 229.721 C 357.608 228.625,334.645 229.768,324.500 231.554 C 308.425 234.385,308.153 232.917,323.739 227.453 C 329.658 225.378,334.950 223.280,335.500 222.789 C 337.779 220.757,326.808 223.485,316.500 227.513 C 286.417 239.269,281.518 241.054,280.087 240.778 C 279.235 240.614,281.455 239.209,285.019 237.656 C 288.584 236.103,293.300 233.979,295.500 232.936 C 305.865 228.021,327.967 218.158,332.000 216.647 C 334.475 215.720,340.550 214.581,345.500 214.116 L 354.500 213.270 345.084 213.135 C 336.477 213.012,334.412 213.395,321.084 217.595 C 303.865 223.021,298.925 225.360,293.361 230.721 C 289.319 234.615,283.422 237.606,286.065 234.421 C 287.534 232.652,287.101 232.647,282.872 234.388 C 281.017 235.152,277.475 236.050,275.000 236.384 L 270.500 236.993 275.500 235.146 C 284.251 231.914,289.609 229.276,294.622 225.733 C 310.657 214.399,321.580 210.094,337.013 209.025 C 350.299 208.104,352.827 206.840,357.563 198.749 C 359.574 195.312,362.930 190.641,365.020 188.370 C 371.495 181.332,375.676 173.983,380.552 161.067 C 383.134 154.229,387.024 145.729,389.197 142.179 C 393.222 135.602,396.742 124.375,395.661 121.558 C 394.848 119.440,391.099 119.600,385.859 121.978 C 383.462 123.066,380.441 123.966,379.148 123.978 C 375.767 124.010,360.770 129.194,351.968 133.373 C 346.677 135.885,340.919 140.005,332.610 147.224 C 326.106 152.876,319.145 158.567,317.142 159.872 C 315.139 161.177,312.262 163.398,310.750 164.809 C 308.010 167.365,307.128 166.498,308.968 163.059 C 310.619 159.975,331.268 141.745,338.569 136.925 C 342.381 134.409,347.665 131.549,350.311 130.569 C 352.957 129.590,354.908 128.574,354.646 128.313 C 354.385 128.052,353.120 128.349,351.836 128.974 C 349.607 130.058,349.589 130.039,351.444 128.553 C 356.395 124.587,375.387 118.780,387.543 117.516 C 392.766 116.972,393.954 117.176,396.293 119.016 C 401.301 122.955,399.997 130.691,390.565 153.000 C 384.080 168.341,377.697 178.878,368.412 189.574 C 365.512 192.915,361.232 198.540,358.901 202.074 C 356.569 205.608,354.175 208.831,353.581 209.235 C 352.914 209.688,353.136 209.975,354.159 209.985 C 355.071 209.993,358.040 207.188,360.757 203.750 C 363.473 200.313,368.704 193.900,372.381 189.500 C 381.720 178.323,385.909 170.920,393.315 152.500 C 401.099 133.141,402.819 126.392,401.054 122.132 C 398.450 115.844,394.621 114.544,382.953 115.986 M91.000 123.975 C 95.125 125.038,103.225 127.024,109.000 128.388 C 128.407 132.972,143.625 138.642,155.040 145.541 C 160.516 148.851,166.000 151.347,166.000 150.529 C 166.000 149.810,155.762 143.285,150.494 140.647 C 138.894 134.838,102.084 124.123,88.500 122.603 C 84.196 122.121,84.544 122.312,91.000 123.975 M393.375 124.203 C 393.013 124.788,392.629 126.718,392.521 128.492 C 392.413 130.266,390.074 135.943,387.322 141.108 C 384.570 146.274,380.809 154.325,378.965 159.000 C 374.914 169.263,367.750 181.395,364.338 183.768 C 359.498 187.134,349.706 195.327,344.635 200.253 C 339.713 205.034,339.625 205.213,342.500 204.557 C 344.150 204.180,347.764 201.651,350.531 198.936 C 353.299 196.221,355.898 194.000,356.307 194.000 C 357.605 194.000,354.296 199.388,351.180 202.350 C 348.465 204.930,347.252 205.275,338.341 205.990 C 320.795 207.399,307.645 212.185,294.997 221.767 C 288.328 226.819,282.127 230.460,281.411 229.745 C 280.358 228.692,307.104 209.186,320.573 201.184 C 324.401 198.910,330.450 195.878,334.016 194.445 C 340.736 191.746,349.758 184.065,353.349 177.987 C 356.165 173.218,354.306 174.464,346.647 182.478 C 339.733 189.712,339.239 190.023,331.500 192.030 C 321.717 194.567,316.725 197.028,311.500 201.889 C 309.300 203.936,306.600 206.261,305.500 207.055 C 303.081 208.802,303.381 208.343,310.328 199.658 C 317.196 191.072,316.142 189.187,308.947 197.190 C 305.639 200.870,298.560 207.575,293.216 212.091 C 279.242 223.900,278.522 225.256,290.336 217.515 C 294.631 214.702,293.392 216.379,288.674 219.768 C 286.294 221.477,283.032 223.199,281.424 223.596 C 278.290 224.368,273.965 226.807,272.765 228.477 C 272.337 229.073,272.024 228.798,272.015 227.818 C 272.007 226.893,273.462 225.136,275.250 223.913 C 277.038 222.690,281.200 219.082,284.500 215.895 C 299.192 201.706,313.170 189.000,314.087 189.000 C 314.636 189.000,317.429 187.252,320.293 185.116 C 323.157 182.980,327.060 180.443,328.968 179.478 C 333.851 177.007,361.708 151.375,360.655 150.322 C 360.125 149.792,351.415 157.299,339.142 168.863 C 336.595 171.262,330.612 175.184,325.847 177.577 C 312.015 184.523,308.033 187.426,298.854 197.248 C 294.099 202.337,289.954 206.255,289.643 205.955 C 289.331 205.655,291.724 201.875,294.959 197.555 C 298.195 193.234,301.779 187.130,302.924 183.989 C 304.818 178.794,305.742 177.749,313.180 172.390 C 321.631 166.301,338.407 150.921,340.188 147.629 C 340.907 146.300,340.882 145.955,340.100 146.438 C 339.495 146.812,339.000 146.910,339.000 146.656 C 339.000 146.402,342.938 143.370,347.750 139.917 C 358.419 132.264,370.990 126.971,379.549 126.528 C 383.433 126.327,386.807 125.480,388.978 124.160 C 392.325 122.124,394.645 122.147,393.375 124.203 M361.180 125.148 C 358.253 126.273,356.019 127.352,356.215 127.548 C 356.410 127.744,359.480 126.824,363.035 125.504 C 366.591 124.184,368.825 123.104,368.000 123.104 C 367.175 123.104,364.106 124.024,361.180 125.148 M190.042 126.658 C 189.988 128.154,199.041 139.293,199.741 138.593 C 200.417 137.916,198.185 134.582,193.651 129.500 C 191.689 127.300,190.065 126.021,190.042 126.658 M277.232 139.621 C 272.931 157.892,272.624 159.654,274.987 152.500 C 278.133 142.980,281.165 130.167,280.818 127.858 C 280.643 126.694,279.030 131.987,277.232 139.621 M386.500 129.457 C 381.192 132.902,370.324 144.657,371.426 145.760 C 371.787 146.120,375.326 143.199,379.291 139.268 C 383.256 135.337,387.850 131.007,389.500 129.645 C 394.036 125.903,392.159 125.785,386.500 129.457 M273.280 137.223 C 272.059 142.817,271.231 147.564,271.440 147.774 C 272.004 148.338,276.274 129.317,275.857 128.097 C 275.661 127.523,274.501 131.629,273.280 137.223 M378.861 128.914 C 377.562 129.967,376.725 131.051,377.000 131.324 C 377.275 131.597,378.850 130.738,380.500 129.415 C 382.150 128.092,382.987 127.008,382.361 127.005 C 381.734 127.002,380.159 127.861,378.861 128.914 M189.143 134.041 C 191.823 138.809,200.889 149.017,200.955 147.340 C 200.998 146.219,188.252 130.000,187.327 130.000 C 187.077 130.000,187.894 131.818,189.143 134.041 M203.498 131.000 C 203.961 131.825,205.552 134.300,207.033 136.500 C 211.412 143.003,214.098 148.893,217.173 158.730 C 220.162 168.292,221.720 170.830,220.563 164.250 C 219.209 156.554,214.700 144.779,210.964 139.184 C 207.451 133.924,201.441 127.335,203.498 131.000 M213.823 136.500 C 218.455 145.990,223.757 160.942,227.573 175.274 C 229.508 182.544,231.675 189.393,232.388 190.496 C 233.100 191.598,234.015 193.844,234.420 195.486 C 234.984 197.774,235.352 198.122,235.994 196.975 C 237.431 194.408,235.145 185.095,227.806 163.618 C 225.208 156.015,215.609 136.229,212.952 133.000 C 211.403 131.117,211.618 131.982,213.823 136.500 M221.000 131.365 C 221.000 132.928,223.876 138.805,224.972 139.482 C 225.618 139.882,225.159 138.250,223.951 135.855 C 221.584 131.163,221.000 130.274,221.000 131.365 M366.081 133.576 C 360.892 135.931,354.667 140.403,348.730 146.038 C 347.207 147.484,343.157 151.084,339.730 154.037 C 333.249 159.622,321.746 172.167,321.166 174.283 C 320.983 174.952,324.808 171.449,329.666 166.497 C 341.522 154.413,356.840 141.545,365.724 136.205 C 375.544 130.303,375.692 129.212,366.081 133.576 M217.800 133.750 C 218.279 134.713,219.645 137.525,220.835 140.000 C 222.025 142.475,222.999 143.923,222.999 143.217 C 223.000 141.699,218.200 132.000,217.448 132.000 C 217.163 132.000,217.321 132.787,217.800 133.750 M69.508 138.500 C 70.555 140.150,72.894 143.949,74.706 146.941 C 76.518 149.934,78.000 151.983,78.000 151.495 C 78.000 150.156,85.077 157.204,86.037 159.500 C 86.761 161.232,86.882 161.263,86.937 159.728 C 87.012 157.609,79.151 148.789,77.884 149.572 C 77.398 149.872,77.000 149.517,77.000 148.782 C 77.000 148.047,75.155 144.983,72.900 141.973 C 68.121 135.592,66.817 134.258,69.508 138.500 M265.716 143.017 C 264.839 148.159,264.382 194.714,265.201 195.534 C 266.483 196.817,266.881 191.709,267.389 167.500 C 267.865 144.782,267.164 134.527,265.716 143.017 M88.000 143.918 C 90.407 145.880,92.000 146.520,92.000 145.526 C 92.000 145.265,90.537 144.338,88.750 143.465 L 85.500 141.880 88.000 143.918 M388.105 150.101 C 386.494 153.620,384.909 157.625,384.583 159.000 L 383.989 161.500 385.177 159.000 C 385.830 157.625,387.642 153.847,389.203 150.605 C 390.765 147.362,391.816 144.482,391.539 144.205 C 391.261 143.928,389.716 146.581,388.105 150.101 M252.470 156.134 C 252.859 161.983,252.840 171.433,252.428 177.134 L 251.678 187.500 250.047 184.000 C 249.149 182.075,245.519 174.875,241.979 168.000 C 238.440 161.125,234.817 153.742,233.928 151.592 C 233.040 149.443,232.068 148.093,231.769 148.592 C 231.196 149.548,234.382 163.079,235.986 166.500 C 238.994 172.919,240.197 180.478,239.514 188.675 L 238.812 197.097 241.361 194.548 C 244.239 191.670,247.760 191.210,248.674 193.593 C 249.010 194.470,248.707 198.253,248.000 202.000 C 247.284 205.793,247.071 209.631,247.518 210.657 C 248.110 212.015,248.584 210.922,249.319 206.500 C 249.867 203.200,250.357 198.813,250.408 196.750 C 250.459 194.688,250.829 193.000,251.231 193.000 C 252.713 193.000,253.195 198.169,252.114 202.463 C 250.494 208.894,250.637 215.076,252.389 214.404 C 253.189 214.097,253.565 213.054,253.276 211.947 C 252.455 208.807,253.844 203.705,256.385 200.530 L 258.762 197.561 263.913 198.881 C 268.227 199.987,269.399 199.979,271.122 198.835 C 273.232 197.434,280.928 180.433,283.495 171.500 C 285.128 165.816,286.993 149.595,285.881 150.744 C 285.478 151.160,284.229 155.222,283.104 159.770 C 281.979 164.319,279.969 170.169,278.637 172.770 C 264.901 199.605,266.375 197.271,263.977 195.988 C 262.127 194.998,262.000 193.841,262.000 178.024 C 262.000 167.832,261.603 160.873,261.000 160.500 C 260.366 160.108,259.999 162.740,259.997 167.691 C 259.995 175.114,258.564 190.641,257.390 195.986 C 256.900 198.215,256.741 198.289,255.850 196.697 C 255.189 195.516,255.215 192.011,255.926 186.211 C 256.514 181.420,256.994 175.250,256.994 172.500 C 256.994 167.412,253.420 147.057,252.350 146.052 C 252.027 145.748,252.081 150.285,252.470 156.134 M333.375 151.250 C 329.712 157.414,315.295 168.081,310.779 167.968 C 308.986 167.924,312.669 165.159,317.500 162.924 C 319.700 161.906,324.200 158.602,327.500 155.582 C 333.843 149.778,334.567 149.244,333.375 151.250 M370.124 153.514 C 367.168 158.524,367.465 159.251,370.589 154.654 C 372.013 152.559,372.969 150.635,372.713 150.380 C 372.457 150.124,371.292 151.535,370.124 153.514 M167.159 160.205 C 176.553 169.244,182.589 176.827,196.000 196.433 C 200.485 202.990,203.120 205.951,204.500 205.983 C 206.257 206.024,206.197 206.183,204.007 207.291 C 201.634 208.491,201.239 208.232,195.746 201.865 C 192.573 198.188,187.395 193.460,184.238 191.360 C 178.183 187.329,163.817 181.045,160.594 181.017 C 159.546 181.008,157.071 179.800,155.094 178.334 L 151.500 175.668 154.434 178.831 C 156.048 180.571,159.873 182.920,162.934 184.052 C 170.621 186.895,177.075 191.345,187.550 201.027 C 198.579 211.219,200.235 214.321,191.533 208.486 C 182.625 202.512,168.056 196.935,160.000 196.414 C 153.068 195.966,153.538 196.287,164.500 199.491 C 172.073 201.704,182.477 206.911,191.529 213.020 C 202.142 220.181,202.704 221.365,194.341 218.941 C 170.734 212.101,162.536 211.095,145.949 213.006 C 139.894 213.703,135.181 214.514,135.474 214.807 C 135.768 215.101,144.315 215.377,154.468 215.421 C 171.152 215.492,173.100 215.680,174.714 217.374 C 176.446 219.191,176.409 219.224,173.500 218.444 C 171.850 218.001,162.812 217.608,153.416 217.569 L 136.332 217.500 129.416 211.365 C 125.612 207.991,120.218 202.816,117.430 199.865 C 114.641 196.914,112.101 194.500,111.785 194.500 C 111.469 194.500,110.158 193.600,108.872 192.500 C 107.081 190.967,106.856 190.915,107.910 192.274 C 108.666 193.250,109.073 194.260,108.815 194.518 C 108.298 195.035,98.631 184.265,95.335 179.500 C 94.194 177.850,91.995 173.244,90.449 169.264 C 88.903 165.285,87.488 162.179,87.305 162.362 C 86.811 162.856,90.990 176.049,92.680 179.334 C 94.311 182.504,104.621 194.045,105.256 193.411 C 105.480 193.187,109.676 196.890,114.581 201.640 C 119.487 206.389,126.739 212.725,130.698 215.719 L 137.895 221.164 143.698 219.958 C 150.275 218.591,162.621 219.235,173.412 221.508 C 180.309 222.960,192.887 228.200,194.070 230.113 C 194.413 230.668,196.900 230.971,199.597 230.786 C 204.759 230.433,204.743 230.421,196.250 228.320 C 193.559 227.654,193.551 227.631,195.880 227.233 C 197.189 227.010,200.789 227.746,203.880 228.871 C 206.971 229.995,212.875 231.425,217.000 232.049 C 228.761 233.830,246.242 242.182,244.410 245.145 C 243.519 246.588,245.289 245.987,250.196 243.184 C 255.300 240.267,260.837 233.071,262.979 226.570 C 264.199 222.868,264.137 222.529,261.905 220.722 C 259.968 219.153,258.627 218.924,254.543 219.466 C 245.645 220.647,244.324 223.942,250.084 230.597 C 255.202 236.511,255.094 238.217,249.398 241.401 C 245.622 243.512,244.926 243.661,245.521 242.237 C 248.247 235.707,248.282 235.416,246.697 232.458 C 245.148 229.567,245.114 229.557,245.239 232.000 C 245.309 233.375,245.270 236.300,245.153 238.500 C 244.981 241.714,244.741 242.161,243.933 240.773 C 243.379 239.822,240.918 237.663,238.463 235.974 C 233.702 232.699,232.928 230.534,235.750 228.392 C 236.830 227.572,237.019 227.051,236.243 227.032 C 235.552 227.014,234.009 228.125,232.813 229.500 C 229.790 232.977,228.878 232.626,229.563 228.250 C 230.096 224.840,229.780 224.142,226.075 220.547 C 223.834 218.373,222.000 217.057,222.000 217.623 C 222.000 218.188,223.125 219.708,224.500 221.000 C 225.875 222.292,227.000 223.808,227.000 224.370 C 227.000 224.932,225.537 224.003,223.750 222.304 C 219.777 218.529,212.312 214.666,210.403 215.399 C 209.631 215.695,208.971 216.739,208.937 217.719 C 208.891 219.012,208.603 218.822,207.885 217.024 C 206.774 214.238,208.691 212.082,212.441 211.900 C 214.196 211.815,214.131 211.691,212.000 211.057 C 210.625 210.648,208.659 210.738,207.632 211.256 C 205.105 212.529,205.975 219.280,209.092 222.598 C 211.382 225.036,216.794 226.093,215.395 223.830 C 214.902 223.032,215.227 222.873,216.418 223.330 C 217.378 223.699,218.352 224.000,218.582 224.000 C 218.812 224.000,219.000 224.851,219.000 225.892 C 219.000 228.808,215.101 229.174,207.420 226.977 C 203.618 225.890,198.705 224.948,196.503 224.885 L 192.500 224.770 196.500 223.966 C 198.700 223.524,201.625 223.418,203.000 223.731 C 205.417 224.281,205.442 224.234,203.762 222.334 C 199.357 217.354,201.297 208.491,207.043 207.341 C 210.422 206.666,210.897 205.468,208.080 204.731 C 207.024 204.455,203.590 200.240,200.450 195.364 C 193.425 184.459,182.018 169.654,177.139 165.110 C 173.115 161.362,165.136 155.398,160.500 152.674 C 158.850 151.704,161.847 155.093,167.159 160.205 M146.018 155.339 C 153.770 160.547,155.399 161.462,154.592 160.152 C 153.603 158.548,145.055 153.000,143.572 153.000 C 143.002 153.000,144.103 154.053,146.018 155.339 M158.324 157.715 C 158.684 158.299,162.247 161.639,166.240 165.138 C 170.233 168.637,172.825 170.629,172.000 169.564 C 168.939 165.614,156.597 154.921,158.324 157.715 M127.550 160.882 C 129.075 162.297,144.602 170.426,143.500 169.232 C 142.950 168.637,139.251 166.316,135.281 164.075 C 128.367 160.172,125.517 158.995,127.550 160.882 M81.006 161.583 C 81.024 164.533,83.429 170.265,86.014 173.517 C 89.851 178.346,89.773 177.641,85.499 168.858 C 81.894 161.452,80.996 159.998,81.006 161.583 M351.468 165.750 C 344.121 171.480,336.111 179.060,332.712 183.500 L 329.649 187.500 334.074 183.445 C 340.834 177.251,342.957 176.089,338.500 181.023 C 336.300 183.459,334.050 185.793,333.500 186.210 C 332.889 186.674,333.033 186.975,333.868 186.985 C 335.298 187.001,338.494 183.832,348.500 172.477 C 354.778 165.352,357.400 162.000,356.695 162.000 C 356.464 162.000,354.112 163.688,351.468 165.750 M123.000 163.428 C 123.000 163.636,127.388 166.531,132.750 169.863 C 138.113 173.194,146.317 179.313,150.983 183.460 C 155.648 187.607,159.923 190.997,160.483 190.993 C 162.816 190.976,143.841 174.592,136.046 169.893 C 128.084 165.092,123.000 162.573,123.000 163.428 M151.083 169.324 C 151.313 169.502,153.075 170.668,155.000 171.916 L 158.500 174.183 155.694 171.592 C 154.151 170.166,152.389 169.000,151.778 169.000 C 151.167 169.000,150.854 169.146,151.083 169.324 M197.214 182.763 C 200.671 187.032,204.850 193.331,206.500 196.760 C 209.344 202.672,209.684 202.996,213.050 202.998 C 215.002 202.999,217.140 203.540,217.800 204.200 C 219.994 206.394,219.039 203.823,216.477 200.637 C 215.089 198.912,211.116 193.900,207.647 189.500 C 201.778 182.055,194.110 175.000,191.886 175.000 C 191.359 175.000,193.757 178.493,197.214 182.763 M309.687 178.250 C 308.755 178.938,307.557 181.029,307.023 182.899 L 306.054 186.298 308.426 184.070 C 309.730 182.845,311.005 180.753,311.260 179.421 C 311.800 176.595,311.865 176.644,309.687 178.250 M348.877 188.625 C 344.270 192.861,338.322 198.054,335.660 200.164 C 330.130 204.547,331.025 205.272,337.174 201.390 C 341.906 198.403,358.597 182.264,357.790 181.457 C 357.496 181.162,353.485 184.388,348.877 188.625 M272.528 193.278 C 271.166 196.538,269.000 199.096,269.000 197.445 C 269.000 196.410,273.311 188.978,273.691 189.358 C 273.875 189.542,273.352 191.306,272.528 193.278 M150.000 205.000 C 151.375 206.076,152.898 206.966,153.385 206.978 C 153.872 206.990,153.126 206.100,151.727 205.000 C 150.329 203.900,148.806 203.010,148.342 203.022 C 147.879 203.034,148.625 203.924,150.000 205.000 M226.968 213.365 C 226.938 216.338,226.861 216.400,225.468 214.559 C 224.657 213.486,224.018 210.577,224.039 208.059 L 224.078 203.500 225.539 206.865 C 226.343 208.715,226.986 211.640,226.968 213.365 M256.132 209.595 C 255.989 212.949,257.520 214.756,262.750 217.405 L 266.000 219.051 266.000 215.460 C 266.000 211.697,264.542 208.000,263.058 208.000 C 262.579 208.000,262.421 208.893,262.706 209.985 C 263.589 213.361,262.380 215.076,259.788 214.122 C 258.242 213.553,257.299 212.181,256.882 209.890 L 256.263 206.500 256.132 209.595 M359.500 212.103 C 361.150 212.614,366.100 213.238,370.500 213.489 L 378.500 213.944 371.500 212.534 C 367.650 211.758,362.700 211.134,360.500 211.147 C 356.540 211.172,356.530 211.181,359.500 212.103 M385.500 215.637 C 389.639 216.508,398.630 220.004,407.500 224.191 C 415.750 228.085,424.975 232.085,428.000 233.081 L 433.500 234.892 428.500 235.073 C 423.959 235.236,424.327 235.385,432.500 236.690 C 437.450 237.480,442.962 238.143,444.748 238.162 C 446.534 238.182,447.786 238.538,447.529 238.953 C 447.273 239.368,448.118 240.188,449.408 240.776 C 450.698 241.364,453.375 243.268,455.356 245.008 C 457.338 246.748,459.530 248.258,460.229 248.364 C 460.928 248.470,462.057 248.904,462.739 249.330 C 463.592 249.863,463.788 249.612,463.369 248.520 C 463.035 247.649,459.553 245.121,455.631 242.902 C 448.381 238.801,449.145 238.658,459.000 242.272 C 464.391 244.248,467.449 246.891,477.090 257.900 C 480.569 261.872,480.607 262.000,478.308 262.000 C 475.102 262.000,469.075 259.393,466.059 256.702 L 463.591 254.500 465.146 257.000 C 467.273 260.419,472.599 262.891,478.000 262.967 C 484.117 263.052,487.422 264.866,487.825 268.362 C 488.282 272.320,485.545 275.000,481.045 275.000 C 479.040 275.000,476.928 275.472,476.351 276.049 C 475.642 276.758,470.953 276.839,461.901 276.299 C 438.861 274.925,430.846 276.378,408.500 285.977 C 402.450 288.576,394.125 291.535,390.000 292.554 C 385.875 293.573,383.175 294.548,384.000 294.721 C 386.224 295.188,407.233 288.792,417.036 284.663 C 433.026 277.929,435.962 277.464,460.276 277.816 C 480.853 278.113,482.237 278.016,485.402 276.060 C 489.085 273.784,490.558 269.597,489.060 265.658 C 488.571 264.371,485.995 261.913,483.335 260.197 C 480.659 258.469,477.223 255.037,475.641 252.511 C 470.436 244.200,463.836 240.784,441.705 234.943 C 430.785 232.061,422.927 229.174,411.705 223.921 C 397.592 217.314,387.056 213.943,381.000 214.099 C 379.625 214.134,381.650 214.826,385.500 215.637 M360.500 220.958 C 361.600 221.455,369.025 224.207,377.000 227.073 C 384.975 229.940,396.529 234.250,402.676 236.652 C 408.822 239.055,415.347 241.271,417.176 241.577 C 423.391 242.617,390.710 229.734,371.500 223.572 C 363.374 220.965,357.351 219.534,360.500 220.958 M154.006 224.944 C 154.834 225.429,160.009 226.360,165.506 227.012 C 173.457 227.956,176.113 227.939,178.500 226.932 L 181.500 225.666 177.000 224.907 C 170.566 223.822,152.142 223.851,154.006 224.944 M134.500 228.000 C 131.187 228.593,131.841 228.741,138.309 228.858 C 143.294 228.949,145.895 228.638,145.500 228.000 C 144.819 226.898,140.653 226.898,134.500 228.000 M119.000 230.518 C 109.491 232.182,96.741 236.715,87.000 241.895 C 85.075 242.919,81.700 244.329,79.500 245.030 C 77.300 245.730,74.150 247.304,72.500 248.526 C 68.337 251.611,64.568 253.508,65.455 252.073 C 67.000 249.572,80.369 241.094,88.431 237.502 C 97.909 233.278,99.039 231.860,90.815 234.507 C 83.301 236.927,74.367 241.945,63.903 249.626 L 54.880 256.248 58.370 259.445 C 60.289 261.203,63.804 263.216,66.180 263.917 C 68.556 264.619,72.022 266.123,73.881 267.259 C 81.237 271.754,108.431 278.000,120.646 278.000 C 127.614 278.000,127.726 277.957,134.086 272.833 C 145.108 263.953,168.514 254.657,175.460 256.401 L 177.917 257.017 176.208 254.035 C 174.088 250.334,172.971 250.094,165.615 251.765 C 154.362 254.322,142.335 260.910,132.952 269.656 C 124.122 277.887,119.831 278.001,92.267 270.737 C 87.738 269.543,84.363 268.287,84.767 267.944 C 85.170 267.601,90.450 266.026,96.500 264.444 C 102.550 262.862,106.758 261.415,105.852 261.230 C 104.945 261.044,101.547 261.581,98.300 262.422 C 87.910 265.114,78.941 266.014,74.255 264.834 C 67.538 263.143,68.398 262.263,76.285 262.757 C 82.228 263.129,85.969 262.586,97.500 259.681 C 105.200 257.741,112.853 255.466,114.507 254.625 C 116.161 253.784,122.236 252.364,128.007 251.469 C 133.778 250.574,140.075 249.474,142.000 249.024 L 145.500 248.207 142.000 248.104 C 136.025 247.927,114.874 251.803,107.000 254.517 C 93.704 259.099,84.074 260.986,73.941 260.993 C 67.307 260.998,63.795 260.571,62.463 259.597 C 60.689 258.300,61.223 257.879,69.522 254.034 C 79.105 249.594,87.066 246.174,107.000 237.933 L 119.500 232.765 130.000 233.843 C 140.751 234.947,167.096 241.005,169.377 242.898 C 170.366 243.719,170.551 243.302,170.214 241.008 C 169.977 239.389,169.235 237.610,168.567 237.055 C 166.740 235.539,154.232 233.134,144.826 232.489 C 129.529 231.441,125.193 230.785,128.000 229.947 C 132.050 228.736,127.547 229.022,119.000 230.518 M178.667 229.667 C 177.655 230.678,177.870 232.199,178.931 231.543 C 179.443 231.226,180.144 231.425,180.490 231.984 C 181.210 233.149,185.252 233.300,190.054 232.339 L 193.357 231.679 188.929 230.354 C 184.101 228.911,179.716 228.617,178.667 229.667 M206.250 233.689 C 207.213 233.941,208.787 233.941,209.750 233.689 C 210.713 233.438,209.925 233.232,208.000 233.232 C 206.075 233.232,205.287 233.438,206.250 233.689 M192.500 236.737 C 191.400 237.015,189.278 238.271,187.785 239.528 C 185.686 241.294,185.402 241.940,186.535 242.375 C 187.341 242.684,188.000 243.417,188.000 244.004 C 188.000 244.749,187.416 244.758,186.061 244.032 C 184.708 243.308,183.921 243.318,183.460 244.065 C 183.095 244.656,183.739 245.381,184.899 245.684 C 187.481 246.359,187.541 247.200,185.162 249.353 C 183.447 250.906,183.223 250.899,181.789 249.258 C 180.944 248.291,179.724 245.852,179.078 243.838 C 177.365 238.501,175.000 237.990,175.000 242.959 C 175.000 247.515,178.039 250.541,183.676 251.599 C 188.095 252.428,189.264 251.246,189.955 245.256 C 190.393 241.447,190.988 240.302,193.000 239.400 C 195.741 238.170,204.000 238.685,204.000 240.086 C 204.000 240.568,202.088 240.726,199.750 240.438 C 197.412 240.150,194.943 240.294,194.262 240.759 C 193.581 241.223,192.570 244.055,192.016 247.052 C 191.274 251.072,190.218 253.221,187.989 255.250 C 184.518 258.410,186.417 259.033,190.273 256.000 C 191.801 254.798,194.349 253.994,196.658 253.985 C 198.771 253.976,201.175 253.533,202.000 253.000 C 203.083 252.300,202.165 252.026,198.691 252.015 C 195.743 252.006,194.121 251.613,194.500 251.000 C 196.604 247.595,210.195 252.428,210.823 256.805 C 211.144 259.041,211.131 259.040,208.619 256.528 C 205.600 253.509,205.368 253.491,199.833 255.837 C 197.450 256.847,193.250 258.232,190.500 258.914 C 183.957 260.536,168.183 268.467,165.000 271.734 L 162.500 274.300 165.500 272.281 C 169.795 269.391,182.520 265.322,189.250 264.687 C 199.438 263.726,195.944 266.918,180.000 273.137 C 174.225 275.390,167.475 278.397,165.000 279.820 C 154.876 285.640,134.000 304.128,134.000 307.274 C 134.000 308.060,132.861 310.907,131.468 313.601 C 129.495 317.418,129.380 317.948,130.946 316.000 C 132.051 314.625,133.648 312.066,134.495 310.313 C 138.376 302.278,157.787 289.781,180.500 280.695 C 193.491 275.498,194.797 275.281,195.861 278.143 C 197.122 281.536,196.626 282.241,188.674 288.353 C 180.254 294.824,171.081 303.960,175.000 301.971 C 176.375 301.274,180.309 298.632,183.741 296.101 C 187.174 293.571,192.758 290.050,196.151 288.277 C 201.992 285.225,202.191 285.002,199.909 284.090 C 198.584 283.560,198.041 283.098,198.703 283.063 C 199.365 283.029,201.025 283.510,202.392 284.133 C 204.290 284.998,204.597 285.534,203.689 286.403 C 200.224 289.720,192.260 295.429,182.000 301.951 C 164.126 313.312,153.482 321.589,149.378 327.316 L 145.664 332.500 151.758 326.871 C 157.657 321.423,165.223 316.839,183.000 307.944 C 198.314 300.282,208.000 292.525,208.000 287.923 C 208.000 285.702,209.027 285.468,210.947 287.250 C 211.960 288.191,212.123 288.198,211.604 287.277 C 211.149 286.468,212.964 285.078,216.958 283.176 C 222.122 280.716,223.000 280.541,223.000 281.968 C 223.000 282.887,224.167 284.654,225.593 285.894 C 228.948 288.811,228.155 289.518,223.837 287.459 C 220.094 285.674,214.005 286.484,213.209 288.872 C 212.863 289.910,213.168 289.912,214.817 288.882 C 216.416 287.884,217.414 287.867,219.473 288.806 C 220.915 289.463,223.659 290.000,225.572 290.000 C 228.268 290.000,229.244 289.490,229.913 287.728 C 230.388 286.478,232.402 283.511,234.389 281.133 C 238.147 276.635,238.521 274.945,237.104 268.852 C 236.637 266.839,236.641 264.597,237.113 263.852 C 237.677 262.961,237.975 263.779,237.985 266.250 C 237.993 268.313,238.450 270.000,239.000 270.000 C 241.062 270.000,239.870 274.490,235.896 281.689 C 233.638 285.779,232.063 289.396,232.396 289.729 C 232.728 290.061,233.138 290.146,233.307 289.917 C 233.476 289.687,235.057 287.627,236.821 285.338 C 242.283 278.250,243.000 275.399,243.000 260.760 L 243.000 247.455 239.750 245.780 C 234.292 242.968,218.145 238.014,211.130 236.999 C 204.189 235.995,195.900 235.878,192.500 236.737 M225.000 237.500 C 229.566 239.258,231.362 239.232,227.500 237.464 C 225.850 236.708,223.825 236.104,223.000 236.121 C 222.175 236.138,223.075 236.759,225.000 237.500 M121.140 239.147 C 119.293 239.679,117.958 240.291,118.175 240.508 C 118.392 240.725,120.804 240.290,123.535 239.541 C 126.266 238.792,127.600 238.179,126.500 238.180 C 125.400 238.180,122.988 238.615,121.140 239.147 M177.083 238.356 C 178.191 239.304,184.043 239.878,183.491 238.985 C 183.156 238.443,181.484 238.000,179.774 238.000 C 178.065 238.000,176.854 238.160,177.083 238.356 M135.000 240.228 C 133.075 240.799,127.675 242.342,123.000 243.658 L 114.500 246.049 120.500 245.511 C 129.504 244.704,141.146 241.937,140.734 240.702 C 140.219 239.156,138.965 239.052,135.000 240.228 M335.250 241.689 C 336.212 241.941,337.788 241.941,338.750 241.689 C 339.712 241.438,338.925 241.232,337.000 241.232 C 335.075 241.232,334.288 241.438,335.250 241.689 M200.971 244.039 C 199.033 245.265,194.284 245.305,195.550 244.085 C 196.548 243.123,201.163 242.174,201.971 242.765 C 202.230 242.954,201.780 243.527,200.971 244.039 M444.587 245.025 C 449.911 247.660,452.897 250.510,454.597 254.579 C 456.264 258.567,461.179 263.427,466.210 266.059 C 469.096 267.569,471.762 267.971,478.210 267.870 L 486.500 267.741 479.144 266.887 C 469.379 265.753,464.890 263.090,457.623 254.122 C 453.698 249.277,450.247 246.108,447.573 244.894 C 442.041 242.381,439.474 242.494,444.587 245.025 M225.068 248.935 C 227.360 254.265,230.204 256.000,236.649 256.000 C 238.492 256.000,240.000 256.450,240.000 257.000 C 240.000 257.550,237.687 258.000,234.860 258.000 C 231.121 258.000,229.372 258.476,228.442 259.748 C 226.698 262.133,225.553 260.704,227.016 257.970 C 228.905 254.440,226.201 255.964,222.394 260.576 L 219.120 264.541 223.073 264.164 C 228.384 263.658,232.000 266.031,232.000 270.023 C 232.000 272.647,231.653 273.000,229.077 273.000 C 227.437 273.000,224.881 274.071,223.256 275.438 C 221.663 276.779,217.703 279.254,214.458 280.937 L 208.557 283.999 204.029 281.749 C 201.538 280.512,199.348 278.677,199.161 277.671 C 198.409 273.606,199.948 271.272,204.736 269.211 L 209.500 267.162 205.758 267.081 C 201.444 266.988,197.000 270.184,197.000 273.380 C 197.000 274.906,196.718 275.118,195.847 274.247 C 195.159 273.559,194.050 273.425,193.097 273.915 C 192.219 274.367,189.700 275.033,187.500 275.396 L 183.500 276.054 187.713 274.093 C 190.233 272.919,193.045 270.479,194.713 268.019 C 197.473 263.946,197.548 263.911,202.500 264.448 C 205.250 264.746,208.769 265.276,210.320 265.625 C 212.812 266.186,213.776 265.575,218.602 260.380 C 222.629 256.045,223.914 253.974,223.493 252.500 C 222.367 248.555,221.750 244.000,222.341 244.000 C 222.673 244.000,223.900 246.221,225.068 248.935 M153.000 246.042 C 156.025 246.460,160.075 246.802,162.000 246.801 C 165.168 246.801,165.263 246.725,163.000 246.000 C 161.625 245.560,157.575 245.218,154.000 245.240 L 147.500 245.282 153.000 246.042 M271.000 246.605 C 271.000 246.822,268.948 247.000,266.441 247.000 C 263.934 247.000,262.100 246.647,262.366 246.216 C 262.838 245.453,271.000 245.820,271.000 246.605 M98.000 251.061 C 91.675 253.191,87.282 254.949,88.238 254.967 C 90.345 255.007,107.896 249.402,110.000 248.018 C 112.482 246.385,110.060 246.999,98.000 251.061 M238.506 248.009 C 239.502 249.621,238.063 252.845,236.064 253.480 C 233.772 254.207,229.000 252.119,229.000 250.389 C 229.000 247.656,237.043 245.642,238.506 248.009 M158.762 248.707 C 160.006 248.946,161.806 248.937,162.762 248.687 C 163.718 248.437,162.700 248.241,160.500 248.252 C 158.300 248.263,157.518 248.468,158.762 248.707 M422.250 252.728 C 424.313 252.944,427.688 252.944,429.750 252.728 C 431.813 252.513,430.125 252.336,426.000 252.336 C 421.875 252.336,420.188 252.513,422.250 252.728 M124.500 257.140 C 116.800 259.363,110.050 261.646,109.500 262.212 C 108.022 263.735,114.783 262.397,126.222 258.902 C 131.569 257.268,138.994 255.324,142.722 254.582 L 149.500 253.233 144.000 253.165 C 140.379 253.120,133.718 254.478,124.500 257.140 M293.358 255.655 C 291.236 256.939,288.473 257.992,287.218 257.995 C 283.651 258.003,278.000 260.733,278.000 262.449 C 278.000 263.677,279.242 264.000,283.962 264.000 C 287.387 264.000,292.176 264.827,295.212 265.943 C 298.121 267.012,307.734 268.786,316.575 269.886 C 327.393 271.232,334.892 272.729,339.506 274.466 C 348.450 277.833,350.137 277.139,342.465 273.248 C 333.478 268.691,324.242 266.287,307.000 264.015 C 298.475 262.892,290.150 261.568,288.500 261.072 C 285.649 260.217,285.624 260.165,288.000 260.024 C 289.375 259.943,293.875 259.528,298.000 259.102 C 306.833 258.190,327.061 259.427,335.293 261.382 C 342.725 263.147,342.290 261.552,334.465 258.341 C 324.990 254.453,316.747 252.912,306.551 253.125 C 298.752 253.287,296.580 253.704,293.358 255.655 M218.417 256.357 C 218.070 257.261,217.368 258.000,216.858 258.000 C 216.347 258.000,216.432 257.062,217.046 255.914 C 218.319 253.535,219.369 253.874,218.417 256.357 M311.250 255.706 C 310.012 255.944,307.988 255.944,306.750 255.706 C 305.512 255.467,306.525 255.272,309.000 255.272 C 311.475 255.272,312.488 255.467,311.250 255.706 M259.592 262.200 C 261.238 265.357,261.420 268.622,260.000 269.500 C 259.417 269.861,259.000 268.845,259.000 267.062 C 259.000 264.941,257.852 262.725,255.250 259.820 L 251.500 255.634 254.842 257.567 C 256.681 258.630,258.818 260.715,259.592 262.200 M301.762 256.687 C 300.806 256.937,299.006 256.946,297.762 256.707 C 296.518 256.468,297.300 256.263,299.500 256.252 C 301.700 256.241,302.718 256.437,301.762 256.687 M180.500 258.000 C 183.252 259.183,184.231 259.183,183.500 258.000 C 183.160 257.450,181.896 257.032,180.691 257.070 C 178.579 257.138,178.572 257.171,180.500 258.000 M444.500 257.974 C 446.410 258.820,452.785 259.391,451.917 258.639 C 451.688 258.441,449.475 258.011,447.000 257.683 C 443.995 257.286,443.165 257.383,444.500 257.974 M206.453 259.161 C 210.748 261.117,209.430 262.330,203.750 261.648 C 200.863 261.301,197.600 260.993,196.500 260.964 C 194.946 260.922,195.169 260.603,197.500 259.536 C 201.308 257.792,203.270 257.710,206.453 259.161 M427.000 259.015 C 425.520 259.498,427.560 259.605,432.000 259.276 C 436.125 258.972,439.688 258.560,439.917 258.361 C 440.742 257.646,429.443 258.218,427.000 259.015 M123.017 263.370 C 115.051 265.642,109.560 267.647,110.815 267.826 C 114.206 268.310,135.039 263.123,138.500 260.932 C 143.000 258.084,139.771 258.593,123.017 263.370 M240.707 264.238 C 240.468 265.482,240.263 264.700,240.252 262.500 C 240.241 260.300,240.437 259.282,240.687 260.238 C 240.937 261.194,240.946 262.994,240.707 264.238 M407.219 263.971 C 399.915 266.037,393.615 268.070,393.219 268.488 C 392.824 268.906,393.496 268.942,394.714 268.568 C 395.932 268.194,402.682 266.324,409.714 264.413 C 424.377 260.428,425.225 260.148,422.500 260.186 C 421.400 260.201,414.524 261.904,407.219 263.971 M192.250 261.706 C 191.012 261.944,188.988 261.944,187.750 261.706 C 186.512 261.467,187.525 261.272,190.000 261.272 C 192.475 261.272,193.488 261.467,192.250 261.706 M320.250 262.689 C 321.212 262.941,322.788 262.941,323.750 262.689 C 324.712 262.438,323.925 262.232,322.000 262.232 C 320.075 262.232,319.288 262.438,320.250 262.689 M59.000 266.003 C 71.538 276.307,97.712 287.208,113.438 288.676 C 121.262 289.407,127.927 287.771,131.164 284.325 L 133.470 281.871 130.485 283.023 C 128.843 283.657,122.550 284.302,116.500 284.457 C 106.687 284.708,104.508 284.426,96.309 281.841 C 91.254 280.248,80.004 275.385,71.309 271.035 C 60.504 265.630,56.608 264.037,59.000 266.003 M214.235 269.687 C 208.809 271.852,204.905 275.238,206.265 276.599 C 206.844 277.177,212.154 274.851,220.000 270.582 C 225.693 267.485,226.127 267.054,223.500 267.116 C 221.850 267.155,217.681 268.312,214.235 269.687 M255.182 275.234 C 255.371 277.071,254.991 278.502,254.250 278.749 C 253.332 279.056,253.023 277.485,253.086 272.833 C 253.155 267.742,253.338 267.053,254.018 269.318 C 254.483 270.869,255.007 273.531,255.182 275.234 M122.863 269.470 C 122.604 269.729,119.942 270.599,116.946 271.404 C 111.652 272.828,111.605 272.870,115.282 272.934 C 118.858 272.996,126.000 270.742,126.000 269.551 C 126.000 268.880,123.518 268.816,122.863 269.470 M473.096 270.007 C 473.974 270.513,476.674 271.179,479.096 271.488 C 482.046 271.863,482.840 271.759,481.500 271.173 C 478.579 269.895,471.103 268.858,473.096 270.007 M138.000 273.000 C 135.319 274.782,134.201 275.993,135.234 275.996 C 136.188 275.998,138.438 274.663,140.234 273.029 C 144.407 269.234,143.680 269.224,138.000 273.000 M378.000 274.112 C 374.425 275.823,367.225 278.578,362.000 280.235 C 353.471 282.938,351.631 283.185,344.000 282.651 C 339.325 282.324,334.375 281.812,333.000 281.514 C 331.528 281.195,331.940 281.563,334.000 282.410 C 336.036 283.246,341.077 283.880,346.051 283.924 C 356.437 284.016,366.795 281.236,378.500 275.215 C 387.860 270.400,387.485 269.573,378.000 274.112 M232.012 278.977 C 230.524 281.758,227.000 283.579,227.000 281.567 C 227.000 280.740,228.238 279.393,229.750 278.572 C 233.284 276.655,233.258 276.650,232.012 278.977 M145.942 283.750 C 138.728 291.299,135.524 295.000,136.203 295.000 C 136.506 295.000,140.227 291.175,144.471 286.500 C 153.267 276.812,154.149 275.162,145.942 283.750 M249.689 285.750 C 249.438 286.712,249.232 285.925,249.232 284.000 C 249.232 282.075,249.438 281.288,249.689 282.250 C 249.941 283.212,249.941 284.788,249.689 285.750 M180.156 288.432 C 176.513 291.970,173.774 295.107,174.071 295.404 C 174.367 295.701,177.723 292.806,181.528 288.972 C 190.225 280.207,189.087 279.760,180.156 288.432 M172.122 289.290 C 169.665 291.092,165.221 296.244,161.992 301.034 C 158.827 305.728,153.716 312.703,150.632 316.534 C 147.548 320.365,145.020 323.895,145.013 324.379 C 144.989 326.039,152.971 316.491,159.124 307.500 C 162.511 302.550,168.018 295.688,171.362 292.250 C 174.706 288.813,177.230 286.018,176.971 286.040 C 176.712 286.061,174.530 287.524,172.122 289.290 M243.525 294.011 C 242.794 298.130,241.251 303.525,240.096 306.000 C 238.942 308.475,238.186 309.600,238.418 308.500 C 241.145 295.561,243.902 285.568,244.562 286.229 C 244.723 286.390,244.256 289.892,243.525 294.011 M257.507 287.989 C 257.169 288.536,257.531 288.734,258.319 288.431 C 259.117 288.125,260.033 288.644,260.405 289.613 C 261.441 292.314,259.887 311.287,258.724 310.124 C 258.160 309.560,257.933 305.500,258.191 300.584 C 258.438 295.878,258.437 292.230,258.189 292.478 C 257.940 292.726,256.934 292.500,255.952 291.974 C 254.344 291.114,254.248 291.342,254.988 294.259 C 255.441 296.042,256.064 304.925,256.373 314.000 C 256.828 327.319,257.600 333.751,260.381 347.363 C 262.276 356.638,264.207 364.607,264.673 365.073 C 265.139 365.539,264.958 359.525,264.272 351.710 C 263.586 343.894,263.085 326.651,263.159 313.392 C 263.233 300.133,262.976 288.770,262.588 288.142 C 261.721 286.740,258.342 286.638,257.507 287.989 M374.220 290.248 C 371.315 291.361,369.101 292.435,369.300 292.633 C 369.872 293.205,378.937 289.912,379.558 288.906 C 379.866 288.408,379.979 288.050,379.809 288.112 C 379.639 288.173,377.124 289.135,374.220 290.248 M211.015 289.604 C 211.007 290.211,208.290 294.711,204.978 299.604 C 200.603 306.067,197.317 312.739,192.961 324.000 C 189.664 332.525,186.074 341.425,184.983 343.777 C 179.440 355.732,185.993 347.777,192.200 335.017 C 194.478 330.333,197.841 324.129,199.671 321.231 C 201.502 318.332,203.000 315.724,203.000 315.434 C 203.000 315.144,204.991 311.440,207.424 307.203 C 210.738 301.433,211.712 298.809,211.306 296.744 C 211.008 295.229,211.242 293.414,211.825 292.711 C 212.497 291.901,212.546 290.895,211.958 289.966 C 211.448 289.160,211.024 288.997,211.015 289.604 M249.052 297.500 L 247.108 303.500 247.054 299.154 C 247.024 296.725,247.772 293.496,248.750 291.831 C 251.206 287.653,251.352 290.399,249.052 297.500 M302.083 290.512 C 303.534 291.962,310.000 294.334,310.000 293.415 C 310.000 292.597,303.519 289.008,302.036 289.004 C 300.771 289.001,300.777 289.206,302.083 290.512 M214.000 291.763 C 214.000 292.182,215.012 292.970,216.250 293.513 C 217.799 294.193,218.489 295.339,218.465 297.194 C 218.438 299.277,218.721 299.646,219.715 298.822 C 221.985 296.937,221.258 293.049,218.435 291.975 C 215.350 290.802,214.000 290.738,214.000 291.763 M235.000 292.000 C 234.175 292.533,231.925 292.983,230.000 293.000 C 225.704 293.038,224.491 293.784,223.498 297.000 C 223.073 298.375,221.497 301.300,219.994 303.500 C 212.595 314.333,204.732 335.360,205.100 343.329 C 205.156 344.523,205.823 342.656,206.584 339.180 C 208.417 330.809,210.557 326.172,217.344 315.866 C 222.212 308.476,223.634 307.030,227.476 305.562 C 231.230 304.128,232.109 303.266,232.967 300.178 C 233.529 298.155,233.991 296.085,233.994 295.579 C 233.997 295.072,234.745 293.835,235.655 292.829 C 237.488 290.804,237.273 290.531,235.000 292.000 M265.532 292.701 C 265.963 293.691,266.647 300.575,267.052 308.000 C 267.807 321.834,269.036 326.953,274.074 337.250 C 275.353 339.863,276.745 342.000,277.168 342.000 C 277.591 342.000,277.740 341.438,277.498 340.750 C 273.906 330.522,271.862 320.100,271.309 309.196 C 270.701 297.195,270.597 296.751,267.716 293.870 C 265.960 292.114,265.069 291.637,265.532 292.701 M229.684 296.084 C 231.354 297.754,230.009 301.046,227.225 302.105 C 223.902 303.368,223.700 302.963,225.500 298.654 C 227.109 294.804,227.911 294.311,229.684 296.084 M353.500 299.565 C 355.150 300.419,358.075 302.592,360.000 304.393 C 361.925 306.195,365.640 309.375,368.255 311.459 C 376.605 318.115,387.286 333.806,396.466 352.902 C 403.451 367.432,407.797 372.386,401.568 358.719 C 399.666 354.545,396.251 346.376,393.979 340.566 C 388.697 327.054,384.022 320.132,373.375 310.054 C 363.995 301.174,358.829 297.997,353.790 298.006 L 350.500 298.012 353.500 299.565 M116.301 314.234 C 106.416 329.902,105.160 332.035,106.728 330.500 C 109.675 327.614,126.451 301.117,125.765 300.432 C 125.511 300.177,121.252 306.388,116.301 314.234 M326.000 305.469 C 326.000 305.736,330.613 309.098,336.250 312.940 C 341.887 316.782,348.750 321.600,351.500 323.647 L 356.500 327.369 353.000 323.587 C 351.075 321.507,346.800 317.900,343.500 315.571 C 337.139 311.083,326.000 304.652,326.000 305.469 M226.509 307.990 C 225.518 309.085,223.408 315.029,221.819 321.198 C 219.372 330.699,218.869 334.872,218.531 348.458 C 218.152 363.696,218.174 363.924,218.957 353.000 C 220.038 337.917,222.418 324.544,225.845 314.298 C 227.372 309.734,228.551 306.000,228.465 306.000 C 228.380 306.000,227.499 306.896,226.509 307.990 M112.621 312.250 C 110.775 315.137,106.991 321.550,104.211 326.500 C 91.925 348.378,88.379 353.573,79.831 362.226 L 71.162 371.000 74.590 371.000 C 76.811 371.000,79.475 369.944,82.159 368.000 C 86.871 364.587,90.923 364.185,96.827 366.547 C 102.877 368.968,105.582 367.866,113.947 359.572 C 123.940 349.664,126.413 348.693,139.431 349.565 C 149.588 350.245,149.702 350.228,161.303 346.154 C 174.392 341.557,180.443 338.743,183.750 335.713 C 187.856 331.950,186.080 332.099,180.228 336.007 C 177.053 338.127,170.866 341.044,166.478 342.490 C 162.090 343.936,156.122 346.081,153.217 347.257 C 148.301 349.247,147.304 349.316,138.902 348.256 C 125.746 346.595,121.949 348.016,112.068 358.294 C 103.647 367.055,105.220 366.602,91.673 364.163 C 87.754 363.457,86.167 363.641,83.229 365.138 L 79.611 366.983 83.204 363.241 C 87.732 358.526,98.489 342.139,101.505 335.360 C 102.763 332.533,106.054 326.392,108.817 321.713 C 114.981 311.279,117.219 307.000,116.513 307.000 C 116.217 307.000,114.466 309.363,112.621 312.250 M229.568 312.250 C 226.308 319.623,221.427 343.819,223.970 340.000 C 224.520 339.175,224.981 337.600,224.994 336.500 C 225.021 334.357,228.827 319.563,231.363 311.750 C 233.409 305.445,232.461 305.709,229.568 312.250 M188.807 311.750 C 187.981 312.712,186.924 314.175,186.460 315.000 C 185.724 316.308,185.840 316.319,187.363 315.082 C 189.040 313.720,191.476 310.000,190.690 310.000 C 190.481 310.000,189.634 310.788,188.807 311.750 M348.017 314.712 C 351.033 317.304,357.496 323.266,362.381 327.962 C 367.265 332.658,370.711 335.439,370.038 334.141 C 368.226 330.652,354.140 316.193,349.320 312.877 C 342.769 308.368,341.961 309.507,348.017 314.712 M124.592 316.750 C 122.562 319.913,121.947 321.269,123.226 319.765 C 125.750 316.796,129.368 311.000,128.698 311.000 C 128.470 311.000,126.622 313.587,124.592 316.750 M205.000 320.880 C 201.344 324.722,192.283 341.254,190.135 348.000 C 187.873 355.103,185.001 370.509,185.021 375.429 C 185.050 382.600,186.959 390.165,193.364 408.500 C 196.438 417.300,198.964 425.926,198.976 427.668 C 199.003 431.245,199.858 434.000,200.941 434.000 C 202.528 434.000,199.733 420.704,195.056 406.000 C 188.476 385.315,187.577 380.128,188.324 367.171 C 188.938 356.501,190.319 349.895,193.451 342.642 C 195.997 336.747,196.160 338.725,193.897 348.056 C 191.964 356.030,190.962 376.295,192.429 377.762 C 192.731 378.065,192.950 374.305,192.914 369.406 C 192.805 354.350,197.694 333.989,202.346 330.128 C 203.664 329.034,203.679 329.418,202.473 333.423 C 200.528 339.885,197.000 360.174,197.000 364.894 C 197.000 373.387,198.742 369.365,199.895 358.211 C 200.560 351.770,201.821 342.900,202.696 338.500 C 203.571 334.100,204.348 329.825,204.424 329.000 C 204.500 328.175,205.793 325.137,207.298 322.250 C 208.802 319.363,209.731 317.000,209.362 317.000 C 208.993 317.000,207.030 318.746,205.000 320.880 M217.116 324.098 C 216.502 325.858,216.030 328.019,216.067 328.899 C 216.104 329.780,216.759 328.493,217.523 326.040 C 219.123 320.905,218.787 319.304,217.116 324.098 M154.860 327.750 C 151.154 332.224,150.915 333.195,154.294 330.054 C 156.332 328.158,158.000 326.471,158.000 326.304 C 158.000 325.371,156.109 326.242,154.860 327.750 M159.946 329.750 L 156.500 333.500 160.250 330.054 C 163.740 326.846,164.460 326.000,163.696 326.000 C 163.529 326.000,161.842 327.688,159.946 329.750 M243.491 334.123 C 244.082 343.866,248.582 365.260,251.063 370.124 C 254.093 376.062,255.182 375.639,252.416 369.598 C 249.837 363.965,245.142 342.597,244.924 335.500 C 244.856 333.300,244.402 330.375,243.914 329.000 C 243.318 327.318,243.179 328.993,243.491 334.123 M266.000 328.852 C 266.000 331.724,272.997 353.336,273.700 352.633 C 274.174 352.160,267.277 328.182,266.351 327.083 C 266.158 326.854,266.000 327.650,266.000 328.852 M290.495 330.291 C 291.578 335.653,295.004 343.591,299.983 352.274 C 302.742 357.087,305.000 361.309,305.000 361.657 C 305.000 362.004,307.064 366.791,309.586 372.294 C 314.676 383.398,318.977 400.253,318.991 409.153 C 318.996 412.263,318.104 419.238,317.009 424.653 C 315.915 430.069,315.059 435.850,315.107 437.500 C 315.263 442.752,319.048 421.868,319.646 412.466 C 320.234 403.206,318.727 392.428,315.316 381.500 C 313.426 375.443,304.222 356.117,298.648 346.500 C 296.417 342.650,293.543 336.800,292.261 333.500 C 290.980 330.200,290.185 328.756,290.495 330.291 M109.632 333.250 L 107.833 336.500 109.894 334.000 C 111.722 331.783,112.534 330.000,111.716 330.000 C 111.559 330.000,110.622 331.462,109.632 333.250 M132.908 333.750 C 127.741 339.513,126.550 341.493,130.353 338.000 C 133.704 334.923,136.713 331.000,135.722 331.000 C 135.531 331.000,134.265 332.238,132.908 333.750 M328.000 335.824 C 331.799 339.248,342.458 346.190,339.500 343.314 C 337.328 341.202,329.336 335.183,326.500 333.524 C 324.281 332.225,324.671 332.824,328.000 335.824 M209.546 335.250 C 208.297 340.956,207.043 349.376,207.390 349.723 C 207.791 350.125,209.443 343.200,210.485 336.750 C 211.134 332.731,210.365 331.504,209.546 335.250 M135.191 339.306 C 130.049 344.513,128.320 347.326,131.810 344.807 C 134.471 342.886,141.354 335.021,140.832 334.498 C 140.585 334.251,138.047 336.415,135.191 339.306 M351.837 338.707 C 353.068 340.470,355.100 342.720,356.354 343.707 C 357.608 344.693,361.528 348.168,365.067 351.429 C 370.316 356.268,370.672 356.767,367.000 354.142 C 364.525 352.372,358.989 347.740,354.698 343.848 C 350.407 339.955,346.683 336.984,346.421 337.245 C 345.783 337.884,358.166 349.404,363.981 353.582 C 371.271 358.819,387.462 366.960,392.437 367.889 C 397.509 368.837,397.789 367.530,392.739 366.482 C 385.462 364.972,369.853 354.436,356.767 342.202 C 352.250 337.978,350.426 336.686,351.837 338.707 M173.500 345.765 C 170.200 347.749,164.575 351.509,161.000 354.121 C 144.980 365.824,126.685 374.312,102.159 381.422 C 91.069 384.637,88.606 385.000,77.877 385.000 C 69.479 385.000,64.861 384.551,62.314 383.487 C 57.848 381.621,56.894 382.229,60.540 384.618 C 64.089 386.944,78.422 387.674,88.821 386.059 C 104.311 383.654,128.669 375.495,142.588 368.049 C 150.329 363.908,182.000 343.408,182.000 342.539 C 182.000 341.291,179.131 342.380,173.500 345.765 M330.435 343.895 C 330.807 344.497,332.041 345.487,333.176 346.094 C 334.656 346.886,335.050 346.889,334.565 346.105 C 334.193 345.503,332.959 344.513,331.824 343.906 C 330.344 343.114,329.950 343.111,330.435 343.895 M277.059 357.203 C 276.926 358.791,279.770 363.978,285.184 372.021 C 293.309 384.092,305.083 413.246,310.572 434.882 C 312.930 444.180,315.000 448.613,315.000 444.367 C 315.000 443.248,314.665 441.998,314.255 441.588 C 313.845 441.178,312.535 436.716,311.345 431.671 C 309.167 422.446,303.176 405.342,296.924 390.500 C 293.411 382.161,290.239 376.438,283.500 366.275 C 281.300 362.958,278.964 359.401,278.309 358.372 C 277.654 357.342,277.091 356.816,277.059 357.203 M327.392 360.000 C 327.578 361.925,328.916 368.780,330.365 375.233 C 333.188 387.803,333.762 400.004,331.907 408.000 C 329.448 418.598,327.029 433.902,327.015 438.948 C 327.007 441.945,327.535 448.100,328.190 452.626 C 329.075 458.746,329.094 461.787,328.265 464.488 C 327.310 467.598,327.355 467.950,328.575 466.938 C 330.298 465.508,330.439 457.945,328.961 446.162 C 327.873 437.486,328.134 435.284,333.093 411.267 C 335.401 400.092,335.499 391.390,333.449 379.669 C 331.761 370.018,326.806 353.928,327.392 360.000 M337.124 362.368 C 342.048 366.128,354.579 372.745,353.515 371.024 C 352.484 369.357,335.068 359.000,333.295 359.000 C 332.974 359.000,334.697 360.516,337.124 362.368 M219.000 370.000 C 219.000 377.855,214.455 399.192,210.315 410.774 C 208.885 414.775,207.949 418.282,208.235 418.568 C 209.161 419.494,215.726 401.720,217.309 394.000 C 219.021 385.653,220.629 367.000,219.637 367.000 C 219.287 367.000,219.000 368.350,219.000 370.000 M238.173 375.819 C 235.501 382.030,235.388 384.772,238.000 380.000 L 239.916 376.500 239.958 380.782 C 239.981 383.137,239.383 386.542,238.628 388.347 C 237.163 391.855,224.462 410.631,223.188 411.175 C 222.227 411.585,216.844 426.178,217.436 426.769 C 217.677 427.010,219.707 423.673,221.948 419.353 C 224.188 415.034,228.534 408.350,231.605 404.500 C 237.796 396.737,243.022 386.838,242.955 383.000 C 242.931 381.625,242.335 378.310,241.629 375.634 L 240.346 370.767 238.173 375.819 M257.085 379.500 C 262.298 388.872,268.635 395.403,279.791 402.901 C 290.359 410.005,295.942 419.526,300.961 439.000 C 304.948 454.472,308.813 462.087,314.750 466.172 C 321.143 470.571,321.116 468.873,314.698 463.007 C 307.902 456.796,305.820 452.634,301.896 437.422 C 296.727 417.383,291.657 408.936,280.036 401.006 C 274.945 397.533,266.433 389.121,258.180 379.407 L 254.860 375.500 257.085 379.500 M300.202 380.478 C 301.398 382.941,302.549 384.785,302.758 384.575 C 303.211 384.123,299.170 376.000,298.493 376.000 C 298.236 376.000,299.005 378.015,300.202 380.478 M246.675 387.000 C 247.543 392.420,253.522 404.255,257.193 407.820 C 259.991 410.537,271.739 417.012,273.840 416.995 C 274.203 416.992,271.515 415.198,267.866 413.009 C 259.276 407.855,255.638 403.590,250.395 392.531 C 247.349 386.104,246.276 384.509,246.675 387.000 M200.100 389.568 C 199.948 391.196,203.074 401.259,203.576 400.757 C 203.818 400.516,203.157 397.659,202.108 394.409 C 201.058 391.159,200.155 388.981,200.100 389.568 M257.000 399.508 C 259.496 402.751,263.738 406.421,267.213 408.344 L 270.500 410.163 267.357 407.332 C 261.653 402.193,255.473 397.525,257.000 399.508 M294.079 399.224 C 294.035 399.622,295.332 403.300,296.959 407.397 C 298.586 411.494,300.855 418.517,302.001 423.005 C 305.399 436.313,308.879 446.575,310.856 449.117 C 311.875 450.428,313.241 453.131,313.891 455.125 C 315.411 459.787,322.000 469.176,322.000 466.680 C 322.000 465.683,320.941 463.434,319.647 461.683 C 314.689 454.977,309.097 443.090,306.154 433.000 C 304.470 427.225,302.176 419.350,301.057 415.500 C 299.176 409.029,294.260 397.562,294.079 399.224 M264.161 415.938 C 264.347 416.473,266.975 418.747,270.000 420.991 C 277.700 426.704,294.555 443.565,298.250 449.250 C 299.948 451.863,301.459 454.000,301.608 454.000 C 302.344 454.000,298.489 444.365,297.406 443.500 C 296.718 442.950,292.525 438.496,288.088 433.601 C 282.240 427.151,277.792 423.363,271.921 419.834 C 267.466 417.156,263.974 415.403,264.161 415.938 M284.083 421.250 C 284.313 421.387,285.850 422.625,287.500 424.000 L 290.500 426.500 288.076 423.750 C 286.742 422.238,285.205 421.000,284.659 421.000 C 284.113 421.000,283.854 421.113,284.083 421.250 M320.000 455.499 C 320.000 456.820,325.218 464.115,325.769 463.564 C 326.029 463.305,324.837 461.183,323.120 458.849 C 321.404 456.515,320.000 455.008,320.000 455.499 " stroke="none" fill="undefined" fill-rule="evenodd"/></svg>